<?xml version="1.0" encoding="UTF-8"?>
<svg version="1.1" xmlns="http://www.w3.org/2000/svg" width="199" height="170">
<path d="M0 0 C65.67 0 131.34 0 199 0 C199 56.1 199 112.2 199 170 C133.33 170 67.66 170 0 170 C0 113.9 0 57.8 0 0 Z " fill="#FDFDFD" transform="translate(0,0)"/>
<path d="M0 0 C7.55412566 5.66237699 7.55412566 5.66237699 9 10 C7.68 10.33 6.36 10.66 5 11 C2 7.25 2 7.25 2 5 C0.02 4.34 -1.96 3.68 -4 3 C-4.33 3.66 -4.66 4.32 -5 5 C-3.68 5.66 -2.36 6.32 -1 7 C-1 11.26826873 -1.37613513 11.93882432 -4 15 C-2.68 16.32 -1.36 17.64 0 19 C-1.20381448 21.49361571 -2.45428722 23.68143083 -4 26 C-2.68 26.99 -1.36 27.98 0 29 C0.99 28.01 1.98 27.02 3 26 C3.66 26.33 4.32 26.66 5 27 C4.01 27.99 3.02 28.98 2 30 C2.99 31.98 2.99 31.98 4 34 C4.99 33.67 5.98 33.34 7 33 C7 31.35 7 29.7 7 28 C7.66 28 8.32 28 9 28 C8.88541307 26.56163249 8.75790884 25.12429034 8.625 23.6875 C8.52058594 22.48673828 8.52058594 22.48673828 8.4140625 21.26171875 C8.10435574 18.72775559 8.10435574 18.72775559 6 16 C6.66 14.68 7.32 13.36 8 12 C11 13 11 13 12 15 C13.1005452 29.0555344 11.13669534 39.92558232 1.80859375 51.0390625 C-5.4148415 58.87095126 -15.24996222 65.45614673 -26.20751953 66.13720703 C-27.81070368 66.1581138 -29.41401975 66.17033285 -31.01733398 66.17480469 C-42.17649053 66.23046667 -51.87800889 68.02889101 -60.18920898 76.13525391 C-61.12672035 77.08959884 -62.0635799 78.04458428 -63 79 C-64.21252553 80.21488218 -65.42633475 81.42848391 -66.64111328 82.64111328 C-67.31175812 83.31175812 -67.98240295 83.98240295 -68.67337036 84.67337036 C-79.11558024 95.11558024 -89.55779012 105.55779012 -100 116 C-101.17262904 114.88121617 -102.33795138 113.75476949 -103.5 112.625 C-104.1496875 111.99851562 -104.799375 111.37203125 -105.46875 110.7265625 C-107 109 -107 109 -107 107 C-105.76855469 105.78979492 -105.76855469 105.78979492 -103.921875 104.29296875 C-96.97252533 98.38296015 -90.67466458 91.77923367 -84.25 85.3125 C-82.92341195 83.98088577 -81.59659081 82.64950371 -80.26953125 81.31835938 C-77.31758242 78.35654534 -74.36660795 75.39378036 -71.42182922 72.42483521 C-70.1922205 71.19262688 -68.94788564 69.97514654 -67.70092773 68.76049805 C-65.5628506 66.54754064 -64.26047721 64.20983909 -62.8125 61.5 C-62.30332031 60.5615625 -61.79414062 59.623125 -61.26953125 58.65625 C-59.20830695 54.34353454 -58.89687379 50.69041877 -58.76123047 45.90820312 C-58.26596958 30.15169104 -54.42797952 17.88150121 -42.8125 6.75 C-31.0644508 -3.20152621 -13.94053635 -9.03115726 0 0 Z " fill="#2C2C2C" transform="translate(168,30)"/>
<path d="M0 0 C9.49514029 7.1822215 17.26284955 16.91305678 19.75 28.8125 C19.84778304 30.28177015 19.90389272 31.7542048 19.92578125 33.2265625 C20.20468684 44.39673151 20.58282831 53.44838429 27.5625 62.625 C29.75 65.8125 29.75 65.8125 29.75 68.5625 C28.71539864 70.89035307 27.70327502 72.19892499 25.75 73.8125 C21.20910073 72.12588027 17.34372682 69.80857926 13.25 67.25 C7.09352397 63.71002628 2.17000143 63.58848252 -4.8125 63.5 C-18.45554066 63.07351579 -28.3730866 59.556391 -38.25 49.8125 C-47.05937272 39.90576597 -51.14589691 29.44204823 -50.69140625 16.14453125 C-49.62508553 8.09522525 -45.71845107 2.21822104 -39.41015625 -2.78125 C-26.97720183 -10.87503588 -11.80569829 -7.77404329 0 0 Z " fill="#3E3E3E" transform="translate(64.25,33.1875)"/>
<path d="M0 0 C0.8353125 0.7734375 0.8353125 0.7734375 1.6875 1.5625 C3.91108235 3.25919193 3.91108235 3.25919193 6.5625 2.8125 C9.21378289 2.04750731 9.21378289 2.04750731 12 0 C13.32 1.32 14.64 2.64 16 4 C18.49361571 2.79618552 20.68143083 1.54571278 23 0 C27 4.875 27 4.875 27 6 C28.32 6.66 29.64 7.32 31 8 C31 9.32 31 10.64 31 12 C31.33 12 31.66 12 32 12 C32.99 12 33.98 12 35 12 C38 15.44444444 38 15.44444444 38 17 C39.32 17.66 40.64 18.32 42 19 C42 20.32 42 21.64 42 23 C42.33 23 42.66 23 43 23 C43 18.73173127 42.62386487 18.06117568 40 15 C41.65 13.68 43.3 12.36 45 11 C46.98 12.65 48.96 14.3 51 16 C49.125 20.75 49.125 20.75 48 23 C47.34 23 46.68 23 46 23 C45.773125 23.721875 45.54625 24.44375 45.3125 25.1875 C43.72058538 28.59874561 41.84938495 30.55767005 39 33 C36.6875 33.8125 36.6875 33.8125 35 34 C35 34.66 35 35.32 35 36 C34.0925 36.28875 33.185 36.5775 32.25 36.875 C29.65893701 37.77190642 27.42066257 38.75062577 25 40 C18.80973852 43.00701314 12.62526465 42.1774936 6 41 C2.96711299 39.74106577 0.3375439 38.33028445 -2 36 C-2 35.34 -2 34.68 -2 34 C-2.66 34 -3.32 34 -4 34 C-7.76784741 29.43291223 -8.90275175 25.93214313 -9 20 C-7.5625 18 -7.5625 18 -6 17 C-4.0625 17.8125 -4.0625 17.8125 -2 19 C-1.67 19.99 -1.34 20.98 -1 22 C0.32467746 22.6837045 1.65863633 23.34964186 3 24 C3.66 24.99 4.32 25.98 5 27 C4.34 27.99 3.68 28.98 3 30 C4.32 29.34 5.64 28.68 7 28 C8.32 28.99 9.64 29.98 11 31 C9.68 29.35 8.36 27.7 7 26 C8.32 24.68 9.64 23.36 11 22 C9.95125002 19.37812506 9.35068687 18.20628639 6.875 16.75 C6.25625 16.5025 5.6375 16.255 5 16 C3.35 17.32 1.7 18.64 0 20 C-1.32 18.68 -2.64 17.36 -4 16 C-5.65 16.66 -7.3 17.32 -9 18 C-8.85795259 16.41632253 -8.71119847 14.83306682 -8.5625 13.25 C-8.48128906 12.36828125 -8.40007812 11.4865625 -8.31640625 10.578125 C-8.03386611 8.2759461 -7.77452699 6.18632302 -7 4 C-4.5625 2.875 -4.5625 2.875 -2 2 C-1.34 1.34 -0.68 0.68 0 0 Z " fill="#363636" transform="translate(123,51)"/>
<path d="M0 0 C9.49514029 7.1822215 17.26284955 16.91305678 19.75 28.8125 C19.84778304 30.28177015 19.90389272 31.7542048 19.92578125 33.2265625 C20.20468684 44.39673151 20.58282831 53.44838429 27.5625 62.625 C29.75 65.8125 29.75 65.8125 29.75 68.5625 C28.71539864 70.89035307 27.70327502 72.19892499 25.75 73.8125 C21.20910073 72.12588027 17.34372682 69.80857926 13.25 67.25 C7.09352397 63.71002628 2.17000143 63.58848252 -4.8125 63.5 C-18.45554066 63.07351579 -28.3730866 59.556391 -38.25 49.8125 C-47.05937272 39.90576597 -51.14589691 29.44204823 -50.69140625 16.14453125 C-49.62508553 8.09522525 -45.71845107 2.21822104 -39.41015625 -2.78125 C-26.97720183 -10.87503588 -11.80569829 -7.77404329 0 0 Z M-23.25 -4.1875 C-21.69396229 -0.36813472 -19.29395069 2.07294438 -16.25 4.8125 C-15.59 4.8125 -14.93 4.8125 -14.25 4.8125 C-14.0025 5.451875 -13.755 6.09125 -13.5 6.75 C-12.43437567 8.99991541 -12.43437567 8.99991541 -10.125 9.5625 C-9.50625 9.645 -8.8875 9.7275 -8.25 9.8125 C-8.0953125 10.740625 -8.0953125 10.740625 -7.9375 11.6875 C-7.37474627 14.17776484 -7.37474627 14.17776484 -4.25 15.8125 C-3.92 15.8125 -3.59 15.8125 -3.25 15.8125 C-1.25 19.6875 -1.25 19.6875 -1.25 20.8125 C-2.57 19.8225 -3.89 18.8325 -5.25 17.8125 C-5.745 18.3075 -5.745 18.3075 -6.25 18.8125 C-6.3325 18.214375 -6.415 17.61625 -6.5 17 C-7.46834784 14.17565213 -8.84155156 13.51258125 -11.25 11.8125 C-12.29115841 10.51105198 -13.30377841 9.18452131 -14.25 7.8125 C-16.23 8.8025 -16.23 8.8025 -18.25 9.8125 C-18.25 11.1325 -18.25 12.4525 -18.25 13.8125 C-16.93 14.4725 -15.61 15.1325 -14.25 15.8125 C-14.25 16.8025 -14.25 17.7925 -14.25 18.8125 C-15.57 19.1425 -16.89 19.4725 -18.25 19.8125 C-17.92 18.4925 -17.59 17.1725 -17.25 15.8125 C-18.57 14.8225 -19.89 13.8325 -21.25 12.8125 C-21.91 13.1425 -22.57 13.4725 -23.25 13.8125 C-23.25 12.14583333 -23.25 10.47916667 -23.25 8.8125 C-22.63125 9.01875 -22.0125 9.225 -21.375 9.4375 C-20.323125 9.623125 -20.323125 9.623125 -19.25 9.8125 C-18.59 9.1525 -17.93 8.4925 -17.25 7.8125 C-17.3450739 5.7644572 -17.3450739 5.7644572 -18.25 3.8125 C-19.24 3.1525 -20.23 2.4925 -21.25 1.8125 C-22.24 2.3075 -22.24 2.3075 -23.25 2.8125 C-23.25 1.4925 -23.25 0.1725 -23.25 -1.1875 C-23.91 -1.8475 -24.57 -2.5075 -25.25 -3.1875 C-27.57319862 -3.10015927 -27.57319862 -3.10015927 -30.125 -2.5 C-30.98867188 -2.33113281 -31.85234375 -2.16226562 -32.7421875 -1.98828125 C-35.42014289 -1.13317088 -37.11474985 0.00995162 -39.25 1.8125 C-38.92 2.8025 -38.59 3.7925 -38.25 4.8125 C-37.59 4.8125 -36.93 4.8125 -36.25 4.8125 C-36.25 5.4725 -36.25 6.1325 -36.25 6.8125 C-37.9 5.8225 -39.55 4.8325 -41.25 3.8125 C-44.98409018 8.946874 -46.78560522 12.25133602 -46.25 18.8125 C-46.58 19.1425 -46.91 19.4725 -47.25 19.8125 C-47.59733741 23.86476979 -46.93239019 27.11124159 -45.25 30.8125 C-43.3245356 31.9615712 -43.3245356 31.9615712 -41.25 31.8125 C-40.59 31.1525 -39.93 30.4925 -39.25 29.8125 C-36.875 30.125 -36.875 30.125 -34.25 30.8125 C-33.1053125 31.0909375 -33.1053125 31.0909375 -31.9375 31.375 C-31.380625 31.519375 -30.82375 31.66375 -30.25 31.8125 C-30.12625 32.740625 -30.12625 32.740625 -30 33.6875 C-29.43741541 35.99687567 -29.43741541 35.99687567 -27.1875 37.0625 C-26.548125 37.31 -25.90875 37.5575 -25.25 37.8125 C-25.25 38.8025 -25.25 39.7925 -25.25 40.8125 C-29.125 41.8125 -29.125 41.8125 -30.25 41.8125 C-29.59 40.4925 -28.93 39.1725 -28.25 37.8125 C-29.88412443 36.10409719 -31.11906094 34.87796953 -33.25 33.8125 C-34.28145371 32.50334721 -35.28542166 31.17167857 -36.25 29.8125 C-37.57 30.4725 -38.89 31.1325 -40.25 31.8125 C-40.25 33.1325 -40.25 34.4525 -40.25 35.8125 C-41.24 35.4825 -42.23 35.1525 -43.25 34.8125 C-42.59 36.7925 -41.93 38.7725 -41.25 40.8125 C-40.59 40.8125 -39.93 40.8125 -39.25 40.8125 C-38.981875 41.616875 -38.71375 42.42125 -38.4375 43.25 C-38.045625 44.095625 -37.65375 44.94125 -37.25 45.8125 C-36.26 46.1425 -35.27 46.4725 -34.25 46.8125 C-33.92 47.8025 -33.59 48.7925 -33.25 49.8125 C-32.528125 50.06 -31.80625 50.3075 -31.0625 50.5625 C-28.0153456 51.91679084 -27.44092179 52.75481506 -25.5625 55.375 C-23.69591949 57.70580779 -22.72454674 58.67974898 -19.8203125 59.4921875 C-17.27313427 59.74161445 -14.80851597 59.8408829 -12.25 59.8125 C-10.92162109 59.82796875 -10.92162109 59.82796875 -9.56640625 59.84375 C-7.25836166 59.8126128 -5.46302767 59.43491403 -3.25 58.8125 C-2.486875 58.709375 -1.72375 58.60625 -0.9375 58.5 C2.74642995 57.55759932 5.50312469 55.78609088 8.75 53.8125 C7.76 52.8225 6.77 51.8325 5.75 50.8125 C4.76 51.3075 4.76 51.3075 3.75 51.8125 C3.75 50.4925 3.75 49.1725 3.75 47.8125 C2.43 47.1525 1.11 46.4925 -0.25 45.8125 C-0.25 45.4825 -0.25 45.1525 -0.25 44.8125 C-1.56321858 43.1299387 -2.89613064 41.46252828 -4.25 39.8125 C-3.755 38.8225 -3.755 38.8225 -3.25 37.8125 C-2.99476562 38.39515625 -2.73953125 38.9778125 -2.4765625 39.578125 C-1.13258913 42.02638223 0.36810296 43.62993248 2.375 45.5625 C3.00664063 46.17609375 3.63828125 46.7896875 4.2890625 47.421875 C4.77117187 47.88078125 5.25328125 48.3396875 5.75 48.8125 C6.74 48.4825 7.73 48.1525 8.75 47.8125 C8.75 49.1325 8.75 50.4525 8.75 51.8125 C9.41 51.8125 10.07 51.8125 10.75 51.8125 C13.63812959 48.3642483 15.57792194 44.95251717 16.25 40.5 C15.94149986 37.8107245 15.94149986 37.8107245 14.4375 35.9375 C12.67199528 34.5351499 12.67199528 34.5351499 9.75 34.8125 C9.75 33.8225 9.75 32.8325 9.75 31.8125 C8.31249809 30.12451173 8.31249809 30.12451173 6.75 28.8125 C8.0529232 25.905979 9.45873381 24.00414592 11.75 21.8125 C12.08 21.1525 12.41 20.4925 12.75 19.8125 C7.9897898 12.19717285 7.9897898 12.19717285 1.75 5.8125 C0.08637583 5.46429959 -1.57995171 5.12845508 -3.25 4.8125 C-3.518125 4.19375 -3.78625 3.575 -4.0625 2.9375 C-5.76900098 -0.11623859 -7.98149066 -0.57322545 -11.20703125 -1.66015625 C-13.61584361 -2.28193382 -15.77423192 -2.41960326 -18.25 -2.1875 C-18.25 -2.8475 -18.25 -3.5075 -18.25 -4.1875 C-19.9 -4.1875 -21.55 -4.1875 -23.25 -4.1875 Z " fill="#272727" transform="translate(64.25,33.1875)"/>
<path d="M0 0 C3 1 3 1 4 3 C5.1005452 17.0555344 3.13669534 27.92558232 -6.19140625 39.0390625 C-13.4148415 46.87095126 -23.24996222 53.45614673 -34.20751953 54.13720703 C-35.81070368 54.1581138 -37.41401975 54.17033285 -39.01733398 54.17480469 C-50.17649053 54.23046667 -59.87800889 56.02889101 -68.18920898 64.13525391 C-69.12672035 65.08959884 -70.0635799 66.04458428 -71 67 C-72.21252553 68.21488218 -73.42633475 69.42848391 -74.64111328 70.64111328 C-75.31175812 71.31175812 -75.98240295 71.98240295 -76.67337036 72.67337036 C-87.11558024 83.11558024 -97.55779012 93.55779012 -108 104 C-109.17262904 102.88121617 -110.33795138 101.75476949 -111.5 100.625 C-112.1496875 99.99851562 -112.799375 99.37203125 -113.46875 98.7265625 C-115 97 -115 97 -115 95 C-113.76855469 93.78979492 -113.76855469 93.78979492 -111.921875 92.29296875 C-104.97252533 86.38296015 -98.67466458 79.77923367 -92.25 73.3125 C-90.92341195 71.98088577 -89.59659081 70.64950371 -88.26953125 69.31835938 C-85.31714316 66.35610461 -82.36571617 63.3929121 -79.42053223 60.42349243 C-78.19837521 59.1987886 -76.96140736 57.9888969 -75.72167969 56.78198242 C-73.81153244 54.91144552 -73.81153244 54.91144552 -72 52 C-71.01 52 -70.02 52 -69 52 C-69.33 54.31 -69.66 56.62 -70 59 C-69.01257813 58.43410156 -68.02515625 57.86820313 -67.0078125 57.28515625 C-65.71355794 56.54424241 -64.41928621 55.80335855 -63.125 55.0625 C-62.47402344 54.68931641 -61.82304688 54.31613281 -61.15234375 53.93164062 C-56.2265625 51.11328125 -56.2265625 51.11328125 -54 50 C-54.33 49.34 -54.66 48.68 -55 48 C-52.3701085 46.98850327 -51.19827699 46.93060305 -48.5 47.875 C-41.71341859 50.05640117 -34.56729379 51.15822982 -28 48 C-27.360625 47.649375 -26.72125 47.29875 -26.0625 46.9375 C-23.42494429 45.73861104 -20.85795906 45.38972169 -18 45 C-18 44.34 -18 43.68 -18 43 C-13.61538462 40 -13.61538462 40 -11 40 C-10.71125 39.4225 -10.4225 38.845 -10.125 38.25 C-8.5625 35.125 -8.5625 35.125 -7 32 C-6.34 32 -5.68 32 -5 32 C-4.5359375 30.824375 -4.5359375 30.824375 -4.0625 29.625 C-3 27 -3 27 -2 25 C-2.66 24.67 -3.32 24.34 -4 24 C-3.34 24 -2.68 24 -2 24 C-1.67 21.36 -1.34 18.72 -1 16 C-0.34 16 0.32 16 1 16 C0.88541307 14.56163249 0.75790884 13.12429034 0.625 11.6875 C0.52058594 10.48673828 0.52058594 10.48673828 0.4140625 9.26171875 C0.10435574 6.72775559 0.10435574 6.72775559 -2 4 C-1.34 2.68 -0.68 1.36 0 0 Z " fill="#1D1D1D" transform="translate(176,42)"/>
<path d="M0 0 C1.65 0 3.3 0 5 0 C5 0.66 5 1.32 5 2 C5.87011719 2.03867187 5.87011719 2.03867187 6.7578125 2.078125 C12.33204835 2.482855 15.70240008 3.3635693 20 7 C20 7.66 20 8.32 20 9 C21.0828125 9.0928125 21.0828125 9.0928125 22.1875 9.1875 C28.97148849 11.1473189 32.4191515 18.35185752 36 24 C34.55802132 26.88395737 32.29355765 28.76525152 30 31 C31.20381448 33.49361571 32.45428722 35.68143083 34 38 C34 38.33 34 38.66 34 39 C34.639375 39.226875 35.27875 39.45375 35.9375 39.6875 C38 41 38 41 38.875 43.25 C39.10780946 48.3718082 37.25982816 52.14747581 34 56 C33.01 55.67 32.02 55.34 31 55 C31.33 53.68 31.66 52.36 32 51 C31.01 51.66 30.02 52.32 29 53 C27.68 51.35 26.36 49.7 25 48 C25.7734375 47.4121875 25.7734375 47.4121875 26.5625 46.8125 C28.24596874 45.07542291 28.24596874 45.07542291 28 42.625 C26.702326 39.21860575 24.62174954 37.49385932 22 35 C20.6875 32.6875 20.6875 32.6875 20 31 C19.34 31 18.68 31 18 31 C16.61767557 29.37373596 15.28062485 27.7074998 14 26 C14.66 26 15.32 26 16 26 C16 25.34 16 24.68 16 24 C16.66 24 17.32 24 18 24 C18.33 23.34 18.66 22.68 19 22 C20.32 22.99 21.64 23.98 23 25 C22.505 24.54625 22.01 24.0925 21.5 23.625 C20 22 20 22 20 20 C19.34 20 18.68 20 18 20 C16.375 18.6875 16.375 18.6875 15 17 C15 16.01 15 15.02 15 14 C14.38125 13.9175 13.7625 13.835 13.125 13.75 C10.32494581 12.76174558 10.25886068 11.59640015 9 9 C7.67592331 8.31513275 6.34090759 7.65129797 5 7 C2.25 4.5 2.25 4.5 0 2 C0 1.34 0 0.68 0 0 Z " fill="#575757" transform="translate(41,29)"/>
<path d="M0 0 C2 3.2 2 3.2 2 5 C2.99 5 3.98 5 5 5 C5.66 5.66 6.32 6.32 7 7 C6.625 9.125 6.625 9.125 6 11 C2.25 12.125 2.25 12.125 0 11 C0.33 11.639375 0.66 12.27875 1 12.9375 C2 15 2 15 2 16 C2.99 16 3.98 16 5 16 C5.66 16.66 6.32 17.32 7 18 C6.625 20.125 6.625 20.125 6 22 C2.125 23 2.125 23 1 23 C1.33 23.99 1.66 24.98 2 26 C2.66 26.33 3.32 26.66 4 27 C4.66 27.33 5.32 27.66 6 28 C6.33 28.99 6.66 29.98 7 31 C6.34 31.99 5.68 32.98 5 34 C3.125 33.75 3.125 33.75 1 33 C0.3162955 31.67532254 -0.34964186 30.34136367 -1 29 C-1.680625 28.67 -2.36125 28.34 -3.0625 28 C-5 27 -5 27 -5.75 24.875 C-5.8325 24.25625 -5.915 23.6375 -6 23 C-6.61875 22.9175 -7.2375 22.835 -7.875 22.75 C-10.67505419 21.76174558 -10.74113932 20.59640015 -12 18 C-13.95021083 16.77472052 -13.95021083 16.77472052 -16 16 C-16.66 15.67 -17.32 15.34 -18 15 C-17.484375 15.4125 -16.96875 15.825 -16.4375 16.25 C-15.7259375 17.11625 -15.7259375 17.11625 -15 18 C-15.3125 20.1875 -15.3125 20.1875 -16 22 C-17.875 22.625 -17.875 22.625 -20 23 C-22 21 -22 21 -22.4375 17.875 C-21.8790017 12.92830074 -19.88005594 9.96007691 -17 6 C-15.35 6.99 -13.7 7.98 -12 9 C-12 8.34 -12 7.68 -12 7 C-12.99 6.67 -13.98 6.34 -15 6 C-14 3 -14 3 -11.75 1.375 C-7.83121551 -0.58439224 -4.17831099 -1.87303596 0 0 Z " fill="#505050" transform="translate(40,31)"/>
<path d="M0 0 C0.8353125 0.7734375 0.8353125 0.7734375 1.6875 1.5625 C3.91108235 3.25919193 3.91108235 3.25919193 6.5625 2.8125 C9.21378289 2.04750731 9.21378289 2.04750731 12 0 C13.32 1.32 14.64 2.64 16 4 C18.49361571 2.79618552 20.68143083 1.54571278 23 0 C27 4.875 27 4.875 27 6 C28.32 6.66 29.64 7.32 31 8 C31 12 31 12 28.75 14.5625 C26.55923736 16.50431234 24.39158986 18.31702936 22 20 C20.68 18.68 19.36 17.36 18 16 C15.50638429 17.20381448 13.31856917 18.45428722 11 20 C9.68 18.68 8.36 17.36 7 16 C4.50638429 17.20381448 2.31856917 18.45428722 0 20 C-1.32 18.68 -2.64 17.36 -4 16 C-5.65 16.66 -7.3 17.32 -9 18 C-8.85795259 16.41632253 -8.71119847 14.83306682 -8.5625 13.25 C-8.48128906 12.36828125 -8.40007812 11.4865625 -8.31640625 10.578125 C-8.03386611 8.2759461 -7.77452699 6.18632302 -7 4 C-4.5625 2.875 -4.5625 2.875 -2 2 C-1.34 1.34 -0.68 0.68 0 0 Z " fill="#373737" transform="translate(123,51)"/>
<path d="M0 0 C1.9375 0.3125 1.9375 0.3125 4 1 C4.33 1.99 4.66 2.98 5 4 C5.99 3.01 6.98 2.02 8 1 C9.92879463 6.70151692 10.2661182 11.82343661 10.375 17.8125 C10.65241016 26.25314586 11.98536485 32.64519045 16.15234375 40.046875 C17.3856613 42.88862052 16.6704872 45.04985632 16 48 C11.75707468 46.39369175 7.72974893 44.4231838 3.6875 42.375 C3.04232422 42.05015625 2.39714844 41.7253125 1.73242188 41.390625 C0.15402459 40.59558044 -1.42311694 39.79804366 -3 39 C-2.01 38.505 -2.01 38.505 -1 38 C-1.99 36.68 -2.98 35.36 -4 34 C-3.34 33.34 -2.68 32.68 -2 32 C-2.99 32 -3.98 32 -5 32 C-5.99 32 -6.98 32 -8 32 C-7.34 30.68 -6.68 29.36 -6 28 C-8.64738916 26.5393715 -9.89448334 26 -13 26 C-12.34 25.01 -11.68 24.02 -11 23 C-12.32 21.68 -13.64 20.36 -15 19 C-14.505 17.515 -14.505 17.515 -14 16 C-12 17 -12 17 -11.1015625 18.859375 C-9.84650922 21.29827286 -8.49066005 22.52612885 -6.375 24.25 C-5.74335937 24.77078125 -5.11171875 25.2915625 -4.4609375 25.828125 C-3.97882813 26.21484375 -3.49671875 26.6015625 -3 27 C-1.68 26.34 -0.36 25.68 1 25 C0.01 27.475 0.01 27.475 -1 30 C-0.34 30.33 0.32 30.66 1 31 C3.72384822 25.94142473 5.67947366 21.71021045 4 16 C2.68 16 1.36 16 0 16 C-0.66 15.67 -1.32 15.34 -2 15 C-1.34 14.01 -0.68 13.02 0 12 C-1.32 10.68 -2.64 9.36 -4 8 C-2.66666667 5.33333333 -1.33333333 2.66666667 0 0 Z " fill="#2A2A2B" transform="translate(74,54)"/>
<path d="M0 0 C6.54329912 4.37415064 6.54329912 4.37415064 8.6875 7.3125 C9.120625 7.869375 9.55375 8.42625 10 9 C11.32 9 12.64 9 14 9 C14.061875 9.721875 14.12375 10.44375 14.1875 11.1875 C15.26698074 14.9241641 17.04556869 16.52652263 20 19 C21.97922654 20.05901922 21.97922654 20.05901922 24 20 C26.21771064 19.14209817 26.21771064 19.14209817 28 18 C29.32 19.65 30.64 21.3 32 23 C30.68 24.32 29.36 25.64 28 27 C29.20381448 29.49361571 30.45428722 31.68143083 32 34 C31.360625 34.598125 30.72125 35.19625 30.0625 35.8125 C27.79689611 37.90810337 27.79689611 37.90810337 27 41 C24.48916886 39.74458443 24.12874554 38.49936512 23 36 C22.38125 36.309375 21.7625 36.61875 21.125 36.9375 C19.75 37.625 18.375 38.3125 17 39 C17.33 38.401875 17.66 37.80375 18 37.1875 C19.57903783 33.73335475 19.09432662 30.55656153 18 27 C16.68352881 26.30062468 15.34977849 25.63270867 14 25 C13.25 22.875 13.25 22.875 13 21 C11.66961551 20.6550855 10.33542939 20.32483418 9 20 C8.13375 19.773125 7.2675 19.54625 6.375 19.3125 C5.59125 19.209375 4.8075 19.10625 4 19 C3.34 19.66 2.68 20.32 2 21 C0 21 0 21 -2 20 C-3.69726294 16.26602153 -4.23990744 13.07842654 -4 9 C-2.02 9 -0.04 9 2 9 C2.86358623 7.21858253 2.86358623 7.21858253 3 5 C1.14567913 2.72855926 1.14567913 2.72855926 -1 1 C-0.67 0.67 -0.34 0.34 0 0 Z " fill="#424242" transform="translate(21,44)"/>
<path d="M0 0 C0.66 0.99 1.32 1.98 2 3 C1.67 3.66 1.34 4.32 1 5 C2.32 5 3.64 5 5 5 C6.0625 6.875 6.0625 6.875 7 9 C6.67 9.66 6.34 10.32 6 11 C6.99 10.34 7.98 9.68 9 9 C10.32 10.65 11.64 12.3 13 14 C11.71034824 15.37562854 10.37310707 16.70766393 9 18 C8.34 18 7.68 18 7 18 C6.34 19.32 5.68 20.64 5 22 C3.68 22 2.36 22 1 22 C-1 18.125 -1 18.125 -1 17 C-4.11332248 17.66868314 -4.11332248 17.66868314 -5.1875 20.0625 C-5.455625 20.701875 -5.72375 21.34125 -6 22 C-7.32 22 -8.64 22 -10 22 C-12 18.125 -12 18.125 -12 17 C-12.99 17 -13.98 17 -15 17 C-16.02196992 16.02246356 -17.01979625 15.0194119 -18 14 C-20.09989652 12.82425289 -20.09989652 12.82425289 -22 12 C-20.48672176 7.76282093 -17.74922352 6.27893979 -14 4 C-12.700625 3.1646875 -12.700625 3.1646875 -11.375 2.3125 C-7.62951122 0.24262462 -4.28433834 -0.45098298 0 0 Z " fill="#393939" transform="translate(148,31)"/>
<path d="M0 0 C3.73324262 1.55287407 6.06516525 3.8485884 8.87890625 6.71875 C10.26045898 8.11673828 10.26045898 8.11673828 11.66992188 9.54296875 C12.63447062 10.52829743 13.59865973 11.51397829 14.5625 12.5 C16.45638765 14.43033905 18.35438323 16.3564355 20.25390625 18.28125 C21.09252197 19.13783203 21.9311377 19.99441406 22.79516602 20.87695312 C25.00841159 23.13384095 25.00841159 23.13384095 28 25 C26.4169423 29.2742558 23.49431596 31.26531794 20 34 C19.60997803 33.53706543 19.21995605 33.07413086 18.81811523 32.59716797 C13.04997338 25.86725422 6.7521543 19.724928 0.41210938 13.5390625 C-0.41353516 12.724375 -1.23917969 11.9096875 -2.08984375 11.0703125 C-3.21700806 9.96840576 -3.21700806 9.96840576 -4.36694336 8.84423828 C-6 7 -6 7 -6 5 C-4.04072937 3.2856382 -2.04119788 1.61594832 0 0 Z " fill="#1B1B1D" transform="translate(105,112)"/>
<path d="M0 0 C1.9375 0.8125 1.9375 0.8125 4 2 C4.33 2.99 4.66 3.98 5 5 C7.00016466 6.20882096 7.00016466 6.20882096 9 7 C9 11 9 11 8 13 C8.66 12.34 9.32 11.68 10 11 C12 11.1875 12 11.1875 14 12 C14.99 13.485 14.99 13.485 16 15 C15.01 16.485 15.01 16.485 14 18 C15.32 17.34 16.64 16.68 18 16 C19.70840281 17.63412443 20.93453047 18.86906094 22 21 C23.64646685 22.68662458 25.31183067 24.35511706 27 26 C24.83370204 28.49124265 23.30623023 29.59924482 20 30 C15.75648756 29.726225 13.77101775 26.98978231 11 24 C9.05298892 21.87757732 9.05298892 21.87757732 6.375 20.5 C5.59125 20.005 4.8075 19.51 4 19 C4 18.34 4 17.68 4 17 C3.01 16.67 2.02 16.34 1 16 C-0.1875 13.4375 -0.1875 13.4375 -1 11 C-1.66 11 -2.32 11 -3 11 C-3.66 9.02 -4.32 7.04 -5 5 C-4.01 5.33 -3.02 5.66 -2 6 C-2 4.68 -2 3.36 -2 2 C-1.34 1.34 -0.68 0.68 0 0 Z " fill="#616161" transform="translate(26,63)"/>
<path d="M0 0 C7.55412566 5.66237699 7.55412566 5.66237699 9 10 C7.68 10.33 6.36 10.66 5 11 C2 7.25 2 7.25 2 5 C-0.31 4.34 -2.62 3.68 -5 3 C-5 2.34 -5 1.68 -5 1 C-5.66 1 -6.32 1 -7 1 C-7.0825 1.598125 -7.165 2.19625 -7.25 2.8125 C-8.20455872 5.5966296 -9.57132271 6.43311142 -12 8 C-12.5775 7.38125 -13.155 6.7625 -13.75 6.125 C-16.42324565 3.60026799 -18.43905294 2.05864023 -22.18359375 1.91796875 C-27.95488061 2.60812264 -31.78617605 3.78617605 -36 8 C-36.7425 8.391875 -37.485 8.78375 -38.25 9.1875 C-41.3991105 11.2630501 -43.29423953 13.60302079 -45.5703125 16.57421875 C-47 18 -47 18 -50 18 C-49.88636723 14.25011865 -48.61715618 12.25990498 -46.125 9.625 C-33.8875973 -1.86010335 -15.62897217 -10.12498385 0 0 Z " fill="#2D2D2D" transform="translate(168,30)"/>
<path d="M0 0 C1.68762851 1.6454378 3.3540349 3.31288577 5 5 C5 5.33 5 5.66 5 6 C6.32 6.66 7.64 7.32 9 8 C9 9.32 9 10.64 9 12 C9.33 12 9.66 12 10 12 C10 7.73173127 9.62386487 7.06117568 7 4 C8.65 2.68 10.3 1.36 12 0 C13.98 1.65 15.96 3.3 18 5 C16.125 9.75 16.125 9.75 15 12 C14.34 12 13.68 12 13 12 C12.773125 12.721875 12.54625 13.44375 12.3125 14.1875 C10.72058538 17.59874561 8.84938495 19.55767005 6 22 C3.6875 22.8125 3.6875 22.8125 2 23 C2 23.66 2 24.32 2 25 C0.02 25.66 -1.96 26.32 -4 27 C-2.68 25.35 -1.36 23.7 0 22 C-1.20381448 19.50638429 -2.45428722 17.31856917 -4 15 C-2.68 13.68 -1.36 12.36 0 11 C-1.20381448 8.50638429 -2.45428722 6.31856917 -4 4 C-2.68 2.68 -1.36 1.36 0 0 Z " fill="#757575" transform="translate(156,62)"/>
<path d="M0 0 C1.9375 0.8125 1.9375 0.8125 4 2 C4.33 2.99 4.66 3.98 5 5 C6.32467746 5.6837045 7.65863633 6.34964186 9 7 C9.99 8.485 9.99 8.485 11 10 C10.01 11.485 10.01 11.485 9 13 C10.32 12.34 11.64 11.68 13 11 C17.455 15.455 17.455 15.455 22 20 C19 24 19 24 15.8125 24.5625 C11.0909408 23.86587651 7.62668874 22.10859034 4 19 C4 18.34 4 17.68 4 17 C3.34 17 2.68 17 2 17 C-1.76784741 12.43291223 -2.90275175 8.93214313 -3 3 C-1.5625 1 -1.5625 1 0 0 Z " fill="#3F3F3F" transform="translate(117,68)"/>
<path d="M0 0 C3.53607764 1.52694262 5.71002394 2.63326557 8.125 5.6875 C9.053125 6.8321875 9.053125 6.8321875 10 8 C11.32 8 12.64 8 14 8 C14 8.66 14 9.32 14 10 C13.01 10.495 13.01 10.495 12 11 C11.16666667 12.91666667 11.16666667 12.91666667 11 15 C11.66 15.66 12.32 16.32 13 17 C13.71869817 22.28454538 13.0230476 27.06882148 11 32 C9.68 32 8.36 32 7 32 C6.34 30.68 5.68 29.36 5 28 C5.66 27.01 6.32 26.02 7 25 C5.68 25.99 4.36 26.98 3 28 C1.68 26.35 0.36 24.7 -1 23 C0.32 21.68 1.64 20.36 3 19 C1.79618552 16.50638429 0.54571278 14.31856917 -1 12 C0.32 10.68 1.64 9.36 3 8 C1.6910428 4.87802522 1.6910428 4.87802522 -1 3 C-0.67 2.01 -0.34 1.02 0 0 Z " fill="#6C6C6C" transform="translate(164,32)"/>
<path d="M0 0 C0.66 0 1.32 0 2 0 C2 1.32 2 2.64 2 4 C3.32 4.66 4.64 5.32 6 6 C6 10.26826873 5.62386487 10.93882432 3 14 C4.32 15.32 5.64 16.64 7 18 C4.75749364 23.00251418 1.84672606 25.45546882 -3 28 C-6 28 -6 28 -7.75 26.75 C-9 25 -9 25 -9 23.125 C-7.58711945 20.12262882 -5.38875935 18.2722345 -3 16 C-2.34 15.01 -1.68 14.02 -1 13 C-2.32 12.01 -3.64 11.02 -5 10 C-6.32 10.99 -7.64 11.98 -9 13 C-8.34 11.02 -7.68 9.04 -7 7 C-8.32 6.34 -9.64 5.68 -11 5 C-11.99 5.66 -12.98 6.32 -14 7 C-13.34 5.68 -12.68 4.36 -12 3 C-7.73173127 3 -7.06117568 3.37613513 -4 6 C-1.7522025 3.94766315 -0.9977758 2.99332739 0 0 Z " fill="#343434" transform="translate(161,31)"/>
<path d="M0 0 C2.88437779 1.29299694 4.87219421 2.65941363 7 5 C5.79618552 7.49361571 4.54571278 9.68143083 3 12 C4.32 13.32 5.64 14.64 7 16 C5.79618552 18.49361571 4.54571278 20.68143083 3 23 C3.66 23.99 4.32 24.98 5 26 C4 27 4 27 0.9375 27.0625 C-0.031875 27.041875 -1.00125 27.02125 -2 27 C-2 25 -2 23 -2 21 C-3.31461399 18.99665314 -3.31461399 18.99665314 -5 17 C-8 13.33333333 -8 13.33333333 -8 10 C-7.02351983 8.97702078 -6.01868662 7.98095748 -5 7 C-3.98812105 5.34051852 -2.9873454 3.67419438 -2 2 C-1.34 1.34 -0.68 0.68 0 0 Z " fill="#343434" transform="translate(139,66)"/>
<path d="M0 0 C1.98 0 3.96 0 6 0 C6.04640625 0.59683594 6.0928125 1.19367188 6.140625 1.80859375 C7.43623764 5.11240599 9.58644827 5.61575378 12.75 7.0625 C16.64260786 8.86978222 20.3569185 10.72644728 24 13 C23.79375 12.38125 23.5875 11.7625 23.375 11.125 C23.25125 10.42375 23.1275 9.7225 23 9 C23.66 8.34 24.32 7.68 25 7 C26.5625 8.1875 26.5625 8.1875 28 10 C27.84946418 13.01071639 27.41319987 14.52068815 25.4375 16.8125 C24.963125 17.204375 24.48875 17.59625 24 18 C19.45910073 16.31338027 15.59372682 13.99607926 11.5 11.4375 C5.86871211 8.19950946 1.26224159 7.64767408 -5.125 7.4375 C-6.73191596 7.37746419 -8.33870188 7.3138104 -9.9453125 7.24609375 C-10.65187988 7.22216553 -11.35844727 7.1982373 -12.08642578 7.17358398 C-14 7 -14 7 -17 6 C-16.67 5.01 -16.34 4.02 -16 3 C-13.69 3.33 -11.38 3.66 -9 4 C-8.67 3.34 -8.34 2.68 -8 2 C-5.69 2 -3.38 2 -1 2 C-0.67 1.34 -0.34 0.68 0 0 Z " fill="#252526" transform="translate(66,89)"/>
<path d="M0 0 C10.78959643 -0.82643717 18.59891732 2.21562422 26.8984375 9.078125 C32.27576826 13.99568399 36.97926061 19.32920052 40 26 C39.875 28.875 39.875 28.875 39 31 C38.01 31.495 38.01 31.495 37 32 C36.62875 30.845 36.2575 29.69 35.875 28.5 C34.10769995 23.76465059 31.49631327 19.66187686 28 16 C27.34 16 26.68 16 26 16 C25.7525 15.360625 25.505 14.72125 25.25 14.0625 C24.22075249 11.82698013 24.22075249 11.82698013 22.125 11.5 C21.42375 11.335 20.7225 11.17 20 11 C19.41476563 10.36578125 18.82953125 9.7315625 18.2265625 9.078125 C15.60834657 6.6344568 13.70648897 6.07297356 10.25 5.25 C9.26515625 5.00765625 8.2803125 4.7653125 7.265625 4.515625 C6.51796875 4.34546875 5.7703125 4.1753125 5 4 C5 3.34 5 2.68 5 2 C3.35 2 1.7 2 0 2 C0 1.34 0 0.68 0 0 Z " fill="#222222" transform="translate(41,27)"/>
<path d="M0 0 C0.66 0.33 1.32 0.66 2 1 C1.34 2.32 0.68 3.64 0 5 C2.85276137 7.93200474 5.65079784 10.64315404 9 13 C9.391875 12.484375 9.78375 11.96875 10.1875 11.4375 C12 10 12 10 14.5 10.1875 C17 11 17 11 20 13 C20.99 12.01 21.98 11.02 23 10 C23.66 10.33 24.32 10.66 25 11 C24.01 11.99 23.02 12.98 22 14 C23.15173355 16.46800047 24.04783565 18.04783565 26 20 C23.03824877 19.38722388 21.61941217 18.74627478 19 17 C18.01 18.32 17.02 19.64 16 21 C17.32 22.32 18.64 23.64 20 25 C18.63016497 28.16115776 18.0109362 28.9927092 15 31 C15.66 29.02 16.32 27.04 17 25 C14.35261084 23.5393715 13.10551666 23 10 23 C10.66 22.01 11.32 21.02 12 20 C10.68 19.01 9.36 18.02 8 17 C6.68 17.99 5.36 18.98 4 20 C4.66 18.02 5.32 16.04 6 14 C3.35261084 12.5393715 2.10551666 12 -1 12 C-0.34 11.01 0.32 10.02 1 9 C-0.32 8.01 -1.64 7.02 -3 6 C-4.32 6.99 -5.64 7.98 -7 9 C-5.44499019 5.18315774 -2.96404505 2.80804268 0 0 Z " fill="#363636" transform="translate(148,46)"/>
<path d="M0 0 C1.68762851 1.6454378 3.3540349 3.31288577 5 5 C5 5.33 5 5.66 5 6 C6.32 6.66 7.64 7.32 9 8 C9 9.32 9 10.64 9 12 C9.99 11.67 10.98 11.34 12 11 C12.99 12.485 12.99 12.485 14 14 C10.1353507 17.27008787 6.29525923 18.79134007 1.25 19.25 C-1 19 -1 19 -3 17 C-2.6875 15.1875 -2.6875 15.1875 -2 13 C-1.27034634 10.43717258 -1.27034634 10.43717258 -1 8 C-1.66 7.34 -2.32 6.68 -3 6 C-2.63318342 3.06546739 -2.13562754 2.13562754 0 0 Z " fill="#484848" transform="translate(59,73)"/>
<path d="M0 0 C3.61939504 1.72743854 6.87567603 3.47650757 10 6 C11.32 5.34 12.64 4.68 14 4 C13.34 5.65 12.68 7.3 12 9 C12.66 9.45375 13.32 9.9075 14 10.375 C14.66 10.91125 15.32 11.4475 16 12 C16 12.66 16 13.32 16 14 C13.50638429 12.79618552 11.31856917 11.54571278 9 10 C8.608125 10.515625 8.21625 11.03125 7.8125 11.5625 C6 13 6 13 3.5 12.8125 C1 12 1 12 -2 10 C-2.433125 10.495 -2.86625 10.99 -3.3125 11.5 C-5 13 -5 13 -8 13 C-8 11.68 -8 10.36 -8 9 C-8.66 9 -9.32 9 -10 9 C-9.34 7.35 -8.68 5.7 -8 4 C-7.01 4.33 -6.02 4.66 -5 5 C-3.35 3.35 -1.7 1.7 0 0 Z " fill="#363636" transform="translate(125,42)"/>
<path d="M0 0 C0.86625 0.556875 0.86625 0.556875 1.75 1.125 C1.75 5.125 1.75 5.125 -0.25 8.125 C0.430625 8.681875 1.11125 9.23875 1.8125 9.8125 C3.75 12.125 3.75 12.125 3.5625 14.625 C3.294375 15.45 3.02625 16.275 2.75 17.125 C2.07491581 19.67531805 1.75 21.44244161 1.75 24.125 C-0.56 23.795 -2.87 23.465 -5.25 23.125 C-4.59 21.805 -3.93 20.485 -3.25 19.125 C-4.57 17.805 -5.89 16.485 -7.25 15.125 C-6.04618552 12.63138429 -4.79571278 10.44356917 -3.25 8.125 C-4.57 6.805 -5.89 5.485 -7.25 4.125 C-6.25 1.125 -6.25 1.125 -4.4375 -0.1875 C-2.25 -0.875 -2.25 -0.875 0 0 Z " fill="#383838" transform="translate(55.25,68.875)"/>
<path d="M0 0 C1.65 1.65 3.3 3.3 5 5 C4.484375 5.391875 3.96875 5.78375 3.4375 6.1875 C1.71152254 7.94289666 1.71152254 7.94289666 2.1875 10.5 C2.94271259 13.20696281 2.94271259 13.20696281 5 16 C3.35 17.32 1.7 18.64 0 20 C-1.32 18.68 -2.64 17.36 -4 16 C-5.65 16.66 -7.3 17.32 -9 18 C-8.85795259 16.41632253 -8.71119847 14.83306682 -8.5625 13.25 C-8.48128906 12.36828125 -8.40007812 11.4865625 -8.31640625 10.578125 C-8.03386611 8.2759461 -7.77452699 6.18632302 -7 4 C-4.5625 2.875 -4.5625 2.875 -2 2 C-1.34 1.34 -0.68 0.68 0 0 Z " fill="#5D5D5D" transform="translate(123,51)"/>
<path d="M0 0 C0.10957031 0.67546875 0.21914062 1.3509375 0.33203125 2.046875 C0.49058594 2.93890625 0.64914063 3.8309375 0.8125 4.75 C0.96332031 5.63171875 1.11414063 6.5134375 1.26953125 7.421875 C2.05414248 10.1910911 3.14595359 11.8259401 5 14 C2.12835434 16.70272533 0.69008159 17.94791837 -3.3125 18.25 C-4.199375 18.1675 -5.08625 18.085 -6 18 C-5.95875 16.9275 -5.9175 15.855 -5.875 14.75 C-6.02190797 10.34276101 -6.67612779 8.42570853 -9.625 5.25 C-10.07875 4.8375 -10.5325 4.425 -11 4 C-7.65667474 -0.27945633 -5.29105716 -0.4070044 0 0 Z " fill="#212122" transform="translate(100,36)"/>
<path d="M0 0 C1.51400391 0.01740234 1.51400391 0.01740234 3.05859375 0.03515625 C4.07050781 0.04417969 5.08242188 0.05320312 6.125 0.0625 C7.29869141 0.07990234 7.29869141 0.07990234 8.49609375 0.09765625 C8.49609375 0.42765625 8.49609375 0.75765625 8.49609375 1.09765625 C6.51609375 1.09765625 4.53609375 1.09765625 2.49609375 1.09765625 C3.15609375 2.74765625 3.81609375 4.39765625 4.49609375 6.09765625 C5.15609375 6.09765625 5.81609375 6.09765625 6.49609375 6.09765625 C7.49609375 7.76432292 8.49609375 9.43098958 9.49609375 11.09765625 C12.9405407 14.93356035 12.9405407 14.93356035 17.49609375 17.09765625 C19.18359375 19.66015625 19.18359375 19.66015625 20.49609375 22.09765625 C21.81609375 21.76765625 23.13609375 21.43765625 24.49609375 21.09765625 C24.49609375 21.75765625 24.49609375 22.41765625 24.49609375 23.09765625 C23.83609375 23.09765625 23.17609375 23.09765625 22.49609375 23.09765625 C24.97109375 26.56265625 24.97109375 26.56265625 27.49609375 30.09765625 C25.02809328 28.9459227 23.4482581 28.0498206 21.49609375 26.09765625 C20.50609375 26.09765625 19.51609375 26.09765625 18.49609375 26.09765625 C18.16609375 24.77765625 17.83609375 23.45765625 17.49609375 22.09765625 C16.17609375 21.76765625 14.85609375 21.43765625 13.49609375 21.09765625 C13.16609375 19.77765625 12.83609375 18.45765625 12.49609375 17.09765625 C11.17609375 17.09765625 9.85609375 17.09765625 8.49609375 17.09765625 C8.49609375 18.41765625 8.49609375 19.73765625 8.49609375 21.09765625 C9.48609375 21.75765625 10.47609375 22.41765625 11.49609375 23.09765625 C11.49609375 24.08765625 11.49609375 25.07765625 11.49609375 26.09765625 C8.99609375 27.78515625 8.99609375 27.78515625 6.49609375 29.09765625 C6.82609375 27.11765625 7.15609375 25.13765625 7.49609375 23.09765625 C6.50609375 22.43765625 5.51609375 21.77765625 4.49609375 21.09765625 C2.51609375 22.08765625 2.51609375 22.08765625 0.49609375 23.09765625 C1.15609375 21.44765625 1.81609375 19.79765625 2.49609375 18.09765625 C1.17609375 16.77765625 -0.14390625 15.45765625 -1.50390625 14.09765625 C1.16276042 14.76432292 3.82942708 15.43098958 6.49609375 16.09765625 C6.82609375 14.77765625 7.15609375 13.45765625 7.49609375 12.09765625 C6.50609375 11.43765625 5.51609375 10.77765625 4.49609375 10.09765625 C2.51609375 11.08765625 2.51609375 11.08765625 0.49609375 12.09765625 C0.86734375 11.35515625 1.23859375 10.61265625 1.62109375 9.84765625 C2.74319416 7.19880194 2.74319416 7.19880194 1.87109375 4.91015625 C0.28636156 2.82119109 -1.09123944 2.06272297 -3.50390625 1.09765625 C-2.50390625 0.09765625 -2.50390625 0.09765625 0 0 Z " fill="#3C3C3C" transform="translate(38.50390625,25.90234375)"/>
<path d="M0 0 C2 3.2 2 3.2 2 5 C2.99 5 3.98 5 5 5 C5.66 5.66 6.32 6.32 7 7 C6.625 9.125 6.625 9.125 6 11 C4.3125 11.6875 4.3125 11.6875 2 12 C-0.75 10.5625 -0.75 10.5625 -3 9 C-3 9.66 -3 10.32 -3 11 C-3.66 10.67 -4.32 10.34 -5 10 C-5.625 7.9375 -5.625 7.9375 -6 6 C-8.83967231 6 -11.23735711 6.40267181 -14 7 C-14 5.68 -14 4.36 -14 3 C-9.9297434 -0.13991223 -4.96108691 -2.22393551 0 0 Z " fill="#4D4D4D" transform="translate(40,31)"/>
<path d="M0 0 C1.9375 0.3125 1.9375 0.3125 4 1 C4.33 1.99 4.66 2.98 5 4 C5.99 3.01 6.98 2.02 8 1 C9.2380062 7.74025596 8.40601608 13.3716385 7 20 C4.48916886 18.74458443 4.12874554 17.49936512 3 15 C1.35 15.33 -0.3 15.66 -2 16 C-1.34 14.68 -0.68 13.36 0 12 C-1.32 10.68 -2.64 9.36 -4 8 C-2.66666667 5.33333333 -1.33333333 2.66666667 0 0 Z " fill="#353535" transform="translate(74,54)"/>
<path d="M0 0 C1.8125 1.4375 1.8125 1.4375 2.6875 3.6875 C2.92030946 8.8093082 1.07232816 12.58497581 -2.1875 16.4375 C-3.1775 16.1075 -4.1675 15.7775 -5.1875 15.4375 C-4.8575 14.1175 -4.5275 12.7975 -4.1875 11.4375 C-5.1775 12.0975 -6.1675 12.7575 -7.1875 13.4375 C-8.5075 11.7875 -9.8275 10.1375 -11.1875 8.4375 C-10.506875 7.81875 -10.506875 7.81875 -9.8125 7.1875 C-8.0952669 5.52314502 -8.0952669 5.52314502 -7.25 3.375 C-5.50869257 0.19967469 -3.54707668 -0.91210543 0 0 Z " fill="#494949" transform="translate(77.1875,68.5625)"/>
<path d="M0 0 C0.66 0.66 1.32 1.32 2 2 C3.32 1.34 4.64 0.68 6 0 C7.65 1.32 9.3 2.64 11 4 C12.32 2.68 13.64 1.36 15 0 C17.88437779 1.29299694 19.87219421 2.65941363 22 5 C20.79618552 7.49361571 19.54571278 9.68143083 18 12 C19.32 13.32 20.64 14.64 22 16 C21.67 16.66 21.34 17.32 21 18 C19.68 16.68 18.36 15.36 17 14 C15.02 14.66 13.04 15.32 11 16 C11.99 14.35 12.98 12.7 14 11 C12.8553125 10.13375 12.8553125 10.13375 11.6875 9.25 C9.33799083 7.28296907 7.70676495 5.51523256 6 3 C4.35 3.66 2.7 4.32 1 5 C0.67 3.35 0.34 1.7 0 0 Z " fill="#313131" transform="translate(113,66)"/>
<path d="M0 0 C1.9375 0.8125 1.9375 0.8125 4 2 C4.33 2.99 4.66 3.98 5 5 C7.00016466 6.20882096 7.00016466 6.20882096 9 7 C9 8.32 9 9.64 9 11 C5.125 13 5.125 13 4 13 C4.33 13.66 4.66 14.32 5 15 C4.67 15.66 4.34 16.32 4 17 C3.01 16.67 2.02 16.34 1 16 C-0.1875 13.4375 -0.1875 13.4375 -1 11 C-1.66 11 -2.32 11 -3 11 C-3.66 9.02 -4.32 7.04 -5 5 C-4.01 5.33 -3.02 5.66 -2 6 C-2 4.68 -2 3.36 -2 2 C-1.34 1.34 -0.68 0.68 0 0 Z " fill="#A2A2A2" transform="translate(26,63)"/>
<path d="M0 0 C0.66 0 1.32 0 2 0 C5 6 8 12 11 18 C6.75707468 16.39369175 2.72974893 14.4231838 -1.3125 12.375 C-1.95767578 12.05015625 -2.60285156 11.7253125 -3.26757812 11.390625 C-4.84597541 10.59558044 -6.42311694 9.79804366 -8 9 C-7.20980469 8.22269531 -6.41960937 7.44539063 -5.60546875 6.64453125 C-3.02986719 4.15993033 -3.02986719 4.15993033 -1.3125 1.6875 C-0.879375 1.130625 -0.44625 0.57375 0 0 Z " fill="#EFEFF0" transform="translate(79,84)"/>
<path d="M0 0 C0.66 0 1.32 0 2 0 C3.25182887 1.44441792 4.50089441 2.89298507 5.68359375 4.39453125 C7.03224859 6.03932989 8.47477397 7.5192412 10 9 C4 12 -2 15 -8 18 C-7.26733512 13.91358743 -5.31342025 10.40525846 -3.4375 6.75 C-3.10814453 6.1003125 -2.77878906 5.450625 -2.43945312 4.78125 C-1.62992435 3.18565706 -0.81544958 1.59257517 0 0 Z " fill="#F1F1F1" transform="translate(113,84)"/>
<path d="M0 0 C0.66 0 1.32 0 2 0 C2 1.32 2 2.64 2 4 C3.32 4.66 4.64 5.32 6 6 C6 10 6 10 4.8125 11.8125 C3 13 3 13 0.5 12.8125 C-2 12 -2 12 -5 10 C-6.32 10.99 -7.64 11.98 -9 13 C-8.34 11.02 -7.68 9.04 -7 7 C-8.32 6.34 -9.64 5.68 -11 5 C-11.99 5.66 -12.98 6.32 -14 7 C-13.34 5.68 -12.68 4.36 -12 3 C-7.73173127 3 -7.06117568 3.37613513 -4 6 C-1.7522025 3.94766315 -0.9977758 2.99332739 0 0 Z " fill="#3B3B3B" transform="translate(161,31)"/>
<path d="M0 0 C1.98 0 3.96 0 6 0 C6.66 1.98 7.32 3.96 8 6 C5.21978582 6.92673806 3.52766109 7.12855766 0.65625 7.1328125 C-0.17777344 7.13410156 -1.01179688 7.13539062 -1.87109375 7.13671875 C-2.73863281 7.13285156 -3.60617188 7.12898438 -4.5 7.125 C-5.80130859 7.13080078 -5.80130859 7.13080078 -7.12890625 7.13671875 C-7.96292969 7.13542969 -8.79695313 7.13414063 -9.65625 7.1328125 C-10.41744141 7.13168457 -11.17863281 7.13055664 -11.96289062 7.12939453 C-14 7 -14 7 -17 6 C-16.67 5.01 -16.34 4.02 -16 3 C-13.69 3.33 -11.38 3.66 -9 4 C-8.67 3.34 -8.34 2.68 -8 2 C-5.69 2 -3.38 2 -1 2 C-0.67 1.34 -0.34 0.68 0 0 Z " fill="#1E1E1F" transform="translate(66,89)"/>
<path d="M0 0 C0 0.66 0 1.32 0 2 C-0.55429688 2.26554687 -1.10859375 2.53109375 -1.6796875 2.8046875 C-2.40414062 3.15789063 -3.12859375 3.51109375 -3.875 3.875 C-4.59429687 4.22304688 -5.31359375 4.57109375 -6.0546875 4.9296875 C-8.15135019 5.96557543 -8.15135019 5.96557543 -10 8 C-10.7425 8.391875 -11.485 8.78375 -12.25 9.1875 C-15.3991105 11.2630501 -17.29423953 13.60302079 -19.5703125 16.57421875 C-21 18 -21 18 -24 18 C-23.88636723 14.25011865 -22.61715618 12.25990498 -20.125 9.625 C-7.36843035 -2.34087318 -7.36843035 -2.34087318 0 0 Z " fill="#242424" transform="translate(142,30)"/>
<path d="M0 0 C0.66 1.32 1.32 2.64 2 4 C-0.46901646 6.61425273 -2.77081743 8.85227172 -5.80126953 10.80566406 C-9.29735846 13.20398854 -12.09891516 15.84445836 -15.0546875 18.859375 C-15.87430466 19.683237 -15.87430466 19.683237 -16.71047974 20.52374268 C-18.43678305 22.26114792 -20.15596018 24.00541079 -21.875 25.75 C-23.05161739 26.9366601 -24.22869639 28.12286268 -25.40625 29.30859375 C-28.27619645 32.20046788 -31.13977763 35.09850916 -34 38 C-34 35 -34 35 -32.75392151 33.39988708 C-32.17069626 32.82633987 -31.58747101 32.25279266 -30.98657227 31.66186523 C-30.32911514 31.0078624 -29.67165802 30.35385956 -28.99427795 29.68003845 C-28.27558029 28.9799617 -27.55688263 28.27988495 -26.81640625 27.55859375 C-26.08630844 26.83511246 -25.35621063 26.11163116 -24.60398865 25.3662262 C-22.26378041 23.04948394 -19.91367622 20.74310614 -17.5625 18.4375 C-15.21662852 16.12664511 -12.8728807 13.81369247 -10.53172302 11.49806213 C-9.07250438 10.0558697 -7.61022247 8.61676912 -6.14466858 7.18101501 C-5.4840593 6.53016434 -4.82345001 5.87931366 -4.14282227 5.20874023 C-3.266791 4.34961281 -3.266791 4.34961281 -2.37306213 3.47312927 C-0.89599902 2.02758057 -0.89599902 2.02758057 0 0 Z " fill="#D9D9D9" transform="translate(105,107)"/>
<path d="M0 0 C2.25532738 2.0058018 4.09686263 4.16912309 5.8359375 6.6328125 C3.8559375 7.6228125 3.8559375 7.6228125 1.8359375 8.6328125 C-1.1640625 4.8828125 -1.1640625 4.8828125 -1.1640625 2.6328125 C-3.4740625 1.9728125 -5.7840625 1.3128125 -8.1640625 0.6328125 C-8.1640625 -0.0271875 -8.1640625 -0.6871875 -8.1640625 -1.3671875 C-8.8240625 -1.3671875 -9.4840625 -1.3671875 -10.1640625 -1.3671875 C-10.4940625 -0.7071875 -10.8240625 -0.0471875 -11.1640625 0.6328125 C-11.8240625 -0.0271875 -12.4840625 -0.6871875 -13.1640625 -1.3671875 C-14.4840625 -1.3671875 -15.8040625 -1.3671875 -17.1640625 -1.3671875 C-16.8340625 -2.3571875 -16.5040625 -3.3471875 -16.1640625 -4.3671875 C-9.92615362 -7.13959145 -4.8117442 -3.81621091 0 0 Z " fill="#222222" transform="translate(171.1640625,32.3671875)"/>
<path d="M0 0 C1.9375 0.8125 1.9375 0.8125 4 2 C4.33 2.99 4.66 3.98 5 5 C5.66 5.309375 6.32 5.61875 7 5.9375 C9 7 9 7 9.875 9 C9.936875 9.99 9.936875 9.99 10 11 C9.34 11.66 8.68 12.32 8 13 C6 12.875 6 12.875 4 12 C3.3162955 10.67532254 2.65035814 9.34136367 2 8 C-0.0335948 6.73195434 -0.0335948 6.73195434 -2 6 C-2 2 -2 2 0 0 Z " fill="#E2E2E2" transform="translate(48,41)"/>
<path d="M0 0 C1.9375 0.8125 1.9375 0.8125 4 2 C4.33 2.99 4.66 3.98 5 5 C5.66 5.33 6.32 5.66 7 6 C7.66 6.33 8.32 6.66 9 7 C9.33 7.99 9.66 8.98 10 10 C9.01 11.485 9.01 11.485 8 13 C6.125 12.75 6.125 12.75 4 12 C3.3162955 10.67532254 2.65035814 9.34136367 2 8 C-0.0335948 6.73195434 -0.0335948 6.73195434 -2 6 C-2 2 -2 2 0 0 Z " fill="#E1E1E1" transform="translate(37,52)"/>
<path d="M0 0 C1.9375 0.8125 1.9375 0.8125 4 2 C4.33 2.99 4.66 3.98 5 5 C7.00016466 6.20882096 7.00016466 6.20882096 9 7 C9 8.32 9 9.64 9 11 C7.02 11.99 7.02 11.99 5 13 C3.5 11.625 3.5 11.625 2 10 C2 9.34 2 8.68 2 8 C0.68 7.34 -0.64 6.68 -2 6 C-2 2 -2 2 0 0 Z " fill="#E1E1E1" transform="translate(37,63)"/>
<path d="M0 0 C1.9375 0.8125 1.9375 0.8125 4 2 C4.33 2.99 4.66 3.98 5 5 C7.00016466 6.20882096 7.00016466 6.20882096 9 7 C9 8.32 9 9.64 9 11 C7.02 11.99 7.02 11.99 5 13 C3.5 11.625 3.5 11.625 2 10 C2 9.34 2 8.68 2 8 C0.68 7.34 -0.64 6.68 -2 6 C-2 2 -2 2 0 0 Z " fill="#E3E3E3" transform="translate(48,52)"/>
<path d="M0 0 C8.51710292 -0.65237384 15.97933992 0.55371993 22.625 6.25 C23.07875 6.8275 23.5325 7.405 24 8 C23.01 8.66 22.02 9.32 21 10 C21 9.34 21 8.68 21 8 C20.29488281 7.86722656 19.58976562 7.73445313 18.86328125 7.59765625 C15.93273701 6.98596011 13.0721639 6.2368647 10.1875 5.4375 C9.21167969 5.16808594 8.23585938 4.89867187 7.23046875 4.62109375 C6.12638672 4.31365234 6.12638672 4.31365234 5 4 C5 3.34 5 2.68 5 2 C3.35 2 1.7 2 0 2 C0 1.34 0 0.68 0 0 Z " fill="#2B2B2B" transform="translate(41,27)"/>
<path d="M0 0 C1.52514951 3.92870791 0.41014799 6.66717214 -0.875 10.5625 C-1.24367188 11.69816406 -1.61234375 12.83382812 -1.9921875 14.00390625 C-2.32476562 14.99261719 -2.65734375 15.98132813 -3 17 C-4.0541518 20.16245541 -4.31275672 22.86948218 -4.5625 26.1875 C-4.64628906 27.27417969 -4.73007813 28.36085938 -4.81640625 29.48046875 C-4.87699219 30.31191406 -4.93757813 31.14335938 -5 32 C-5.33 32 -5.66 32 -6 32 C-6.08803772 28.50016197 -6.14073608 25.00061362 -6.1875 21.5 C-6.21263672 20.51773438 -6.23777344 19.53546875 -6.26367188 18.5234375 C-6.32622356 12.26826941 -5.58892681 7.70787013 -3 2 C-2.01 2 -1.02 2 0 2 C0 1.34 0 0.68 0 0 Z " fill="#292929" transform="translate(117,49)"/>
<path d="M0 0 C0.99 0.99 1.98 1.98 3 3 C2.3503125 3.5878125 2.3503125 3.5878125 1.6875 4.1875 C-0.26372658 6.28326189 -1.54845476 8.53868415 -3 11 C-3.66 11.66 -4.32 12.32 -5 13 C-5.99 13 -6.98 13 -8 13 C-8 11.68 -8 10.36 -8 9 C-8.66 9 -9.32 9 -10 9 C-9.34 7.35 -8.68 5.7 -8 4 C-7.01 4.33 -6.02 4.66 -5 5 C-3.35 3.35 -1.7 1.7 0 0 Z " fill="#666666" transform="translate(125,42)"/>
<path d="M0 0 C0.78375 0.28875 1.5675 0.5775 2.375 0.875 C3.426875 1.24625 3.426875 1.24625 4.5 1.625 C6.9769147 3.27627646 7.92798509 5.30983721 9.375 7.875 C10.035 8.205 10.695 8.535 11.375 8.875 C11.375 9.865 11.375 10.855 11.375 11.875 C10.75625 12.16375 10.1375 12.4525 9.5 12.75 C7.24174235 13.81220042 7.24174235 13.81220042 5.375 15.875 C5.375 12.76948334 5.9143715 11.52238916 7.375 8.875 C6.75625 8.6275 6.1375 8.38 5.5 8.125 C3.02431313 6.66871361 2.42374998 5.49687494 1.375 2.875 C0.055 2.875 -1.265 2.875 -2.625 2.875 C-2.9231424 6.6513932 -2.9231424 6.6513932 -1.625 8.875 C-4.50937779 7.58200306 -6.49719421 6.21558637 -8.625 3.875 C-3.36684783 -0.16032609 -3.36684783 -0.16032609 0 0 Z " fill="#444344" transform="translate(27.625,62.125)"/>
<path d="M0 0 C0.53109375 0.39960937 1.0621875 0.79921875 1.609375 1.2109375 C-0.79752303 3.93768909 -3.31533523 5.33060346 -6.578125 6.8984375 C-7.92970703 7.55392578 -7.92970703 7.55392578 -9.30859375 8.22265625 C-9.99566406 8.54878906 -10.68273437 8.87492187 -11.390625 9.2109375 C-12.380625 8.2209375 -13.370625 7.2309375 -14.390625 6.2109375 C-12.48627232 4.98328876 -10.5666329 3.77932517 -8.640625 2.5859375 C-7.57328125 1.91304688 -6.5059375 1.24015625 -5.40625 0.546875 C-2.390625 -0.7890625 -2.390625 -0.7890625 0 0 Z " fill="#232323" transform="translate(120.390625,94.7890625)"/>
<path d="M0 0 C0.66 0 1.32 0 2 0 C2.0825 0.61875 2.165 1.2375 2.25 1.875 C2.79326091 4.16669871 2.79326091 4.16669871 4.9375 5.0625 C5.618125 5.371875 6.29875 5.68125 7 6 C7.99 7.485 7.99 7.485 9 9 C7.75 10.5625 7.75 10.5625 6 12 C3.9375 12.0625 3.9375 12.0625 2 11 C0.30273706 7.26602153 -0.23990744 4.07842654 0 0 Z " fill="#D5D5D5" transform="translate(17,53)"/>
<path d="M0 0 C1.65 0 3.3 0 5 0 C5 0.66 5 1.32 5 2 C6.65 2 8.3 2 10 2 C10.66 3.32 11.32 4.64 12 6 C11.01 6.99 10.02 7.98 9 9 C5.18063472 7.44396229 2.73955562 5.04395069 0 2 C0 1.34 0 0.68 0 0 Z " fill="#EFEFEF" transform="translate(41,29)"/>
<path d="M0 0 C2.02551922 0.50637981 4.04811323 1.01312179 6.0625 1.5625 C8.15667366 2.11013044 8.15667366 2.11013044 11 2 C10.34 3.32 9.68 4.64 9 6 C9.99 6.6496875 9.99 6.6496875 11 7.3125 C11.66 7.869375 12.32 8.42625 13 9 C13 9.99 13 10.98 13 12 C10.5 13.6875 10.5 13.6875 8 15 C8.33 13.02 8.66 11.04 9 9 C8.01 8.34 7.02 7.68 6 7 C4.02 7.99 4.02 7.99 2 9 C2.66 7.35 3.32 5.7 4 4 C2.68 2.68 1.36 1.36 0 0 Z " fill="#494949" transform="translate(37,40)"/>
<path d="M0 0 C2 1.625 2 1.625 4 4 C4.25 7.25 4.25 7.25 4 10 C3.01 10 2.02 10 1 10 C0.67 12.31 0.34 14.62 0 17 C-0.33 17 -0.66 17 -1 17 C-1.02699725 14.72923158 -1.04639453 12.45837179 -1.0625 10.1875 C-1.07990234 8.29064453 -1.07990234 8.29064453 -1.09765625 6.35546875 C-1 3 -1 3 0 0 Z " fill="#2C2C2C" transform="translate(15,43)"/>
<path d="M0 0 C1.12588014 0.95729916 2.2506715 1.91587895 3.375 2.875 C4.00148438 3.40867187 4.62796875 3.94234375 5.2734375 4.4921875 C6.55836651 5.61432007 7.79371975 6.79371975 9 8 C9 8.99 9 9.98 9 11 C8.01 11.33 7.02 11.66 6 12 C3.8125 10.875 3.8125 10.875 2 9 C1.875 6.5625 1.875 6.5625 2 4 C1.37779149 2.6453492 0.71616329 1.30741438 0 0 Z " fill="#3E3E3E" transform="translate(28,73)"/>
<path d="M0 0 C1.875 0.25 1.875 0.25 4 1 C5.25 3.0625 5.25 3.0625 6 5 C5.01 5.99 4.02 6.98 3 8 C1.0625 7.1875 1.0625 7.1875 -1 6 C-1.33 5.01 -1.66 4.02 -2 3 C-1.34 2.01 -0.68 1.02 0 0 Z " fill="#ECECEC" transform="translate(36,30)"/>
<path d="M0 0 C1.65 1.65 3.3 3.3 5 5 C3.35 6.32 1.7 7.64 0 9 C-1.32 7.35 -2.64 5.7 -4 4 C-2.68 2.68 -1.36 1.36 0 0 Z " fill="#F3F3F3" transform="translate(156,73)"/>
<path d="M0 0 C1.65 1.65 3.3 3.3 5 5 C3.35 6.32 1.7 7.64 0 9 C-1.32 7.35 -2.64 5.7 -4 4 C-2.68 2.68 -1.36 1.36 0 0 Z " fill="#F3F3F3" transform="translate(134,73)"/>
<path d="M0 0 C1.65 1.65 3.3 3.3 5 5 C3.35 6.32 1.7 7.64 0 9 C-1.32 7.35 -2.64 5.7 -4 4 C-2.68 2.68 -1.36 1.36 0 0 Z " fill="#F4F4F4" transform="translate(123,73)"/>
<path d="M0 0 C1.65 1.65 3.3 3.3 5 5 C3.35 6.32 1.7 7.64 0 9 C-1.32 7.35 -2.64 5.7 -4 4 C-2.68 2.68 -1.36 1.36 0 0 Z " fill="#F4F4F4" transform="translate(145,73)"/>
<path d="M0 0 C1.65 1.65 3.3 3.3 5 5 C3.35 6.32 1.7 7.64 0 9 C-1.32 7.35 -2.64 5.7 -4 4 C-2.68 2.68 -1.36 1.36 0 0 Z " fill="#F0F0F0" transform="translate(70,73)"/>
<path d="M0 0 C1.65 1.65 3.3 3.3 5 5 C3.35 6.32 1.7 7.64 0 9 C-1.32 7.35 -2.64 5.7 -4 4 C-2.68 2.68 -1.36 1.36 0 0 Z " fill="#F1F1F1" transform="translate(167,62)"/>
<path d="M0 0 C1.65 1.65 3.3 3.3 5 5 C3.35 6.32 1.7 7.64 0 9 C-1.32 7.35 -2.64 5.7 -4 4 C-2.68 2.68 -1.36 1.36 0 0 Z " fill="#F3F3F3" transform="translate(156,62)"/>
<path d="M0 0 C1.65 1.65 3.3 3.3 5 5 C3.35 6.32 1.7 7.64 0 9 C-1.32 7.35 -2.64 5.7 -4 4 C-2.68 2.68 -1.36 1.36 0 0 Z " fill="#F3F3F3" transform="translate(134,62)"/>
<path d="M0 0 C1.65 1.65 3.3 3.3 5 5 C3.35 6.32 1.7 7.64 0 9 C-1.32 7.35 -2.64 5.7 -4 4 C-2.68 2.68 -1.36 1.36 0 0 Z " fill="#F4F4F4" transform="translate(123,62)"/>
<path d="M0 0 C1.65 1.65 3.3 3.3 5 5 C3.35 6.32 1.7 7.64 0 9 C-1.32 7.35 -2.64 5.7 -4 4 C-2.68 2.68 -1.36 1.36 0 0 Z " fill="#F3F3F3" transform="translate(145,62)"/>
<path d="M0 0 C1.65 1.65 3.3 3.3 5 5 C3.35 6.32 1.7 7.64 0 9 C-1.32 7.35 -2.64 5.7 -4 4 C-2.68 2.68 -1.36 1.36 0 0 Z " fill="#F0F0F0" transform="translate(70,62)"/>
<path d="M0 0 C1.65 1.65 3.3 3.3 5 5 C3.35 6.32 1.7 7.64 0 9 C-1.32 7.35 -2.64 5.7 -4 4 C-2.68 2.68 -1.36 1.36 0 0 Z " fill="#EFEFEF" transform="translate(59,62)"/>
<path d="M0 0 C1.65 1.65 3.3 3.3 5 5 C3.35 6.32 1.7 7.64 0 9 C-1.32 7.35 -2.64 5.7 -4 4 C-2.68 2.68 -1.36 1.36 0 0 Z " fill="#F1F1F1" transform="translate(156,51)"/>
<path d="M0 0 C1.65 1.65 3.3 3.3 5 5 C3.35 6.32 1.7 7.64 0 9 C-1.32 7.35 -2.64 5.7 -4 4 C-2.68 2.68 -1.36 1.36 0 0 Z " fill="#F3F3F3" transform="translate(145,51)"/>
<path d="M0 0 C1.65 1.65 3.3 3.3 5 5 C3.35 6.32 1.7 7.64 0 9 C-1.32 7.35 -2.64 5.7 -4 4 C-2.68 2.68 -1.36 1.36 0 0 Z " fill="#F3F3F3" transform="translate(134,51)"/>
<path d="M0 0 C1.65 1.65 3.3 3.3 5 5 C3.35 6.32 1.7 7.64 0 9 C-1.32 7.35 -2.64 5.7 -4 4 C-2.68 2.68 -1.36 1.36 0 0 Z " fill="#F3F3F3" transform="translate(123,51)"/>
<path d="M0 0 C1.65 1.65 3.3 3.3 5 5 C3.35 6.32 1.7 7.64 0 9 C-1.32 7.35 -2.64 5.7 -4 4 C-2.68 2.68 -1.36 1.36 0 0 Z " fill="#F1F1F1" transform="translate(167,51)"/>
<path d="M0 0 C1.65 1.65 3.3 3.3 5 5 C3.35 6.32 1.7 7.64 0 9 C-1.32 7.35 -2.64 5.7 -4 4 C-2.68 2.68 -1.36 1.36 0 0 Z " fill="#F0F0F0" transform="translate(167,40)"/>
<path d="M0 0 C1.65 1.65 3.3 3.3 5 5 C3.35 6.32 1.7 7.64 0 9 C-1.32 7.35 -2.64 5.7 -4 4 C-2.68 2.68 -1.36 1.36 0 0 Z " fill="#F1F1F1" transform="translate(156,40)"/>
<path d="M0 0 C1.65 1.65 3.3 3.3 5 5 C3.35 6.32 1.7 7.64 0 9 C-1.32 7.35 -2.64 5.7 -4 4 C-2.68 2.68 -1.36 1.36 0 0 Z " fill="#F2F2F2" transform="translate(145,40)"/>
<path d="M0 0 C1.65 1.65 3.3 3.3 5 5 C3.35 6.32 1.7 7.64 0 9 C-1.32 7.35 -2.64 5.7 -4 4 C-2.68 2.68 -1.36 1.36 0 0 Z " fill="#F2F2F2" transform="translate(134,40)"/>
<path d="M0 0 C1.65 1.65 3.3 3.3 5 5 C3.75 6.5625 3.75 6.5625 2 8 C-0.0625 7.875 -0.0625 7.875 -2 7 C-2.66 6.01 -3.32 5.02 -4 4 C-2.68 2.68 -1.36 1.36 0 0 Z " fill="#F4F4F4" transform="translate(134,84)"/>
<path d="M0 0 C1.65 1.65 3.3 3.3 5 5 C3.75 6.5625 3.75 6.5625 2 8 C-0.0625 7.875 -0.0625 7.875 -2 7 C-2.66 6.01 -3.32 5.02 -4 4 C-2.68 2.68 -1.36 1.36 0 0 Z " fill="#EEEEEE" transform="translate(145,84)"/>
<path d="M0 0 C1.32 0.66 2.64 1.32 4 2 C4 3.32 4 4.64 4 6 C2.02 6.99 2.02 6.99 0 8 C-0.99 7.01 -1.98 6.02 -3 5 C-1.125 1.125 -1.125 1.125 0 0 Z " fill="#F6F6F6" transform="translate(150,79)"/>
<path d="M0 0 C1.32 0.66 2.64 1.32 4 2 C4 3.32 4 4.64 4 6 C2.02 6.99 2.02 6.99 0 8 C-0.99 7.01 -1.98 6.02 -3 5 C-1.125 1.125 -1.125 1.125 0 0 Z " fill="#F7F7F7" transform="translate(139,79)"/>
<path d="M0 0 C1.32 0.66 2.64 1.32 4 2 C4 3.32 4 4.64 4 6 C2.02 6.99 2.02 6.99 0 8 C-0.99 7.01 -1.98 6.02 -3 5 C-1.125 1.125 -1.125 1.125 0 0 Z " fill="#F6F6F6" transform="translate(128,79)"/>
<path d="M0 0 C1.32 0.66 2.64 1.32 4 2 C4 3.32 4 4.64 4 6 C2.02 6.99 2.02 6.99 0 8 C-0.99 7.01 -1.98 6.02 -3 5 C-1.125 1.125 -1.125 1.125 0 0 Z " fill="#F2F2F2" transform="translate(64,79)"/>
<path d="M0 0 C1.32 0.66 2.64 1.32 4 2 C4 3.32 4 4.64 4 6 C2.02 6.99 2.02 6.99 0 8 C-0.99 7.01 -1.98 6.02 -3 5 C-1.125 1.125 -1.125 1.125 0 0 Z " fill="#F1F1F1" transform="translate(53,79)"/>
<path d="M0 0 C1.32 0.66 2.64 1.32 4 2 C4 3.32 4 4.64 4 6 C2.02 6.99 2.02 6.99 0 8 C-0.99 7.01 -1.98 6.02 -3 5 C-1.125 1.125 -1.125 1.125 0 0 Z " fill="#F0F0F0" transform="translate(42,79)"/>
<path d="M0 0 C1.65 1.65 3.3 3.3 5 5 C3.35 6.32 1.7 7.64 0 9 C-1.5625 7.75 -1.5625 7.75 -3 6 C-2.72963853 3.02602384 -2.14553974 2.14553974 0 0 Z " fill="#F1F1F1" transform="translate(59,73)"/>
<path d="M0 0 C1.65 1.65 3.3 3.3 5 5 C3.35 6.32 1.7 7.64 0 9 C-1.5625 7.75 -1.5625 7.75 -3 6 C-2.72963853 3.02602384 -2.14553974 2.14553974 0 0 Z " fill="#F0F0F0" transform="translate(48,73)"/>
<path d="M0 0 C1.32 0.66 2.64 1.32 4 2 C4 3.32 4 4.64 4 6 C2.02 6.99 2.02 6.99 0 8 C-0.99 7.01 -1.98 6.02 -3 5 C-1.125 1.125 -1.125 1.125 0 0 Z " fill="#F7F7F7" transform="translate(128,68)"/>
<path d="M0 0 C1.32 0.66 2.64 1.32 4 2 C4 3.32 4 4.64 4 6 C2.02 6.99 2.02 6.99 0 8 C-0.99 7.01 -1.98 6.02 -3 5 C-1.125 1.125 -1.125 1.125 0 0 Z " fill="#F5F5F5" transform="translate(161,68)"/>
<path d="M0 0 C1.32 0.66 2.64 1.32 4 2 C4 3.32 4 4.64 4 6 C2.02 6.99 2.02 6.99 0 8 C-0.99 7.01 -1.98 6.02 -3 5 C-1.125 1.125 -1.125 1.125 0 0 Z " fill="#F6F6F6" transform="translate(150,68)"/>
<path d="M0 0 C1.32 0.66 2.64 1.32 4 2 C4 3.32 4 4.64 4 6 C2.02 6.99 2.02 6.99 0 8 C-0.99 7.01 -1.98 6.02 -3 5 C-1.125 1.125 -1.125 1.125 0 0 Z " fill="#F6F6F6" transform="translate(139,68)"/>
<path d="M0 0 C1.32 0.66 2.64 1.32 4 2 C4 3.32 4 4.64 4 6 C2.02 6.99 2.02 6.99 0 8 C-0.99 7.01 -1.98 6.02 -3 5 C-1.125 1.125 -1.125 1.125 0 0 Z " fill="#F5F5F5" transform="translate(117,68)"/>
<path d="M0 0 C1.32 0.66 2.64 1.32 4 2 C4 3.32 4 4.64 4 6 C2.02 6.99 2.02 6.99 0 8 C-0.99 7.01 -1.98 6.02 -3 5 C-1.125 1.125 -1.125 1.125 0 0 Z " fill="#F2F2F2" transform="translate(75,68)"/>
<path d="M0 0 C1.32 0.66 2.64 1.32 4 2 C4 3.32 4 4.64 4 6 C2.02 6.99 2.02 6.99 0 8 C-0.99 7.01 -1.98 6.02 -3 5 C-1.125 1.125 -1.125 1.125 0 0 Z " fill="#F2F2F2" transform="translate(64,68)"/>
<path d="M0 0 C1.32 0.66 2.64 1.32 4 2 C4 3.32 4 4.64 4 6 C2.02 6.99 2.02 6.99 0 8 C-0.99 7.01 -1.98 6.02 -3 5 C-1.125 1.125 -1.125 1.125 0 0 Z " fill="#F1F1F1" transform="translate(53,68)"/>
<path d="M0 0 C1.65 1.65 3.3 3.3 5 5 C3.35 6.32 1.7 7.64 0 9 C-1.32 7.35 -2.64 5.7 -4 4 C-3.34 4 -2.68 4 -2 4 C-1.34 2.68 -0.68 1.36 0 0 Z " fill="#F0F0F0" transform="translate(48,62)"/>
<path d="M0 0 C1.32 0.99 2.64 1.98 4 3 C3.67 4.32 3.34 5.64 3 7 C1.1875 7.6875 1.1875 7.6875 -1 8 C-2.75 6.6875 -2.75 6.6875 -4 5 C-4 4.34 -4 3.68 -4 3 C-2 1.375 -2 1.375 0 0 Z " fill="#EDEDED" transform="translate(32,57)"/>
<path d="M0 0 C1.32 0.66 2.64 1.32 4 2 C4 3.32 4 4.64 4 6 C2.02 6.99 2.02 6.99 0 8 C-0.99 7.01 -1.98 6.02 -3 5 C-1.125 1.125 -1.125 1.125 0 0 Z " fill="#F4F4F4" transform="translate(161,57)"/>
<path d="M0 0 C1.32 0.66 2.64 1.32 4 2 C4 3.32 4 4.64 4 6 C2.02 6.99 2.02 6.99 0 8 C-0.99 7.01 -1.98 6.02 -3 5 C-1.125 1.125 -1.125 1.125 0 0 Z " fill="#F5F5F5" transform="translate(150,57)"/>
<path d="M0 0 C1.32 0.66 2.64 1.32 4 2 C4 3.32 4 4.64 4 6 C2.02 6.99 2.02 6.99 0 8 C-0.99 7.01 -1.98 6.02 -3 5 C-1.125 1.125 -1.125 1.125 0 0 Z " fill="#F4F4F4" transform="translate(139,57)"/>
<path d="M0 0 C1.32 0.66 2.64 1.32 4 2 C4 3.32 4 4.64 4 6 C2.02 6.99 2.02 6.99 0 8 C-0.99 7.01 -1.98 6.02 -3 5 C-1.125 1.125 -1.125 1.125 0 0 Z " fill="#F6F6F6" transform="translate(128,57)"/>
<path d="M0 0 C1.32 0.66 2.64 1.32 4 2 C4 3.32 4 4.64 4 6 C2.02 6.99 2.02 6.99 0 8 C-0.99 7.01 -1.98 6.02 -3 5 C-1.125 1.125 -1.125 1.125 0 0 Z " fill="#F1F1F1" transform="translate(64,57)"/>
<path d="M0 0 C1.65 1.65 3.3 3.3 5 5 C3.35 6.32 1.7 7.64 0 9 C-1.5625 7.75 -1.5625 7.75 -3 6 C-2.72963853 3.02602384 -2.14553974 2.14553974 0 0 Z " fill="#F1F1F1" transform="translate(70,51)"/>
<path d="M0 0 C1.32 0.66 2.64 1.32 4 2 C4 3.32 4 4.64 4 6 C2.02 6.99 2.02 6.99 0 8 C-0.99 7.01 -1.98 6.02 -3 5 C-1.125 1.125 -1.125 1.125 0 0 Z " fill="#EDEDED" transform="translate(26,52)"/>
<path d="M0 0 C1.32 0.66 2.64 1.32 4 2 C4 3.32 4 4.64 4 6 C2.02 6.99 2.02 6.99 0 8 C-0.99 7.01 -1.98 6.02 -3 5 C-1.125 1.125 -1.125 1.125 0 0 Z " fill="#F1F1F1" transform="translate(172,46)"/>
<path d="M0 0 C1.32 0.66 2.64 1.32 4 2 C4 3.32 4 4.64 4 6 C2.02 6.99 2.02 6.99 0 8 C-0.99 7.01 -1.98 6.02 -3 5 C-1.125 1.125 -1.125 1.125 0 0 Z " fill="#F3F3F3" transform="translate(161,46)"/>
<path d="M0 0 C1.32 0.66 2.64 1.32 4 2 C4 3.32 4 4.64 4 6 C2.02 6.99 2.02 6.99 0 8 C-0.99 7.01 -1.98 6.02 -3 5 C-1.125 1.125 -1.125 1.125 0 0 Z " fill="#F4F4F4" transform="translate(150,46)"/>
<path d="M0 0 C1.32 0.66 2.64 1.32 4 2 C4 3.32 4 4.64 4 6 C2.02 6.99 2.02 6.99 0 8 C-0.99 7.01 -1.98 6.02 -3 5 C-1.125 1.125 -1.125 1.125 0 0 Z " fill="#F5F5F5" transform="translate(139,46)"/>
<path d="M0 0 C1.32 0.66 2.64 1.32 4 2 C4 3.32 4 4.64 4 6 C2.02 6.99 2.02 6.99 0 8 C-0.99 7.01 -1.98 6.02 -3 5 C-1.125 1.125 -1.125 1.125 0 0 Z " fill="#F5F5F6" transform="translate(128,46)"/>
<path d="M0 0 C1.32 0.99 2.64 1.98 4 3 C3.67 4.32 3.34 5.64 3 7 C1.1875 7.6875 1.1875 7.6875 -1 8 C-2.75 6.6875 -2.75 6.6875 -4 5 C-4 4.34 -4 3.68 -4 3 C-2 1.375 -2 1.375 0 0 Z " fill="#EEEEEE" transform="translate(43,46)"/>
<path d="M0 0 C1.32 0.99 2.64 1.98 4 3 C3.67 4.32 3.34 5.64 3 7 C1.1875 7.6875 1.1875 7.6875 -1 8 C-2.75 6.6875 -2.75 6.6875 -4 5 C-4 4.34 -4 3.68 -4 3 C-2 1.375 -2 1.375 0 0 Z " fill="#EEEEEE" transform="translate(32,46)"/>
<path d="M0 0 C1.32 0.66 2.64 1.32 4 2 C4 3.32 4 4.64 4 6 C2.02 6.99 2.02 6.99 0 8 C-0.99 7.01 -1.98 6.02 -3 5 C-1.125 1.125 -1.125 1.125 0 0 Z " fill="#EEEEEE" transform="translate(37,41)"/>
<path d="M0 0 C1.32 0.66 2.64 1.32 4 2 C4 3.32 4 4.64 4 6 C2.02 6.99 2.02 6.99 0 8 C-0.99 7.01 -1.98 6.02 -3 5 C-1.125 1.125 -1.125 1.125 0 0 Z " fill="#EEEEEE" transform="translate(26,41)"/>
<path d="M0 0 C1.32 0.66 2.64 1.32 4 2 C4 3.32 4 4.64 4 6 C2.02 6.99 2.02 6.99 0 8 C-0.99 7.01 -1.98 6.02 -3 5 C-1.125 1.125 -1.125 1.125 0 0 Z " fill="#F3F3F3" transform="translate(161,35)"/>
<path d="M0 0 C1.32 0.66 2.64 1.32 4 2 C4 3.32 4 4.64 4 6 C2.02 6.99 2.02 6.99 0 8 C-0.99 7.01 -1.98 6.02 -3 5 C-1.125 1.125 -1.125 1.125 0 0 Z " fill="#F4F4F4" transform="translate(150,35)"/>
<path d="M0 0 C1.32 0.66 2.64 1.32 4 2 C4 3.32 4 4.64 4 6 C2.02 6.99 2.02 6.99 0 8 C-0.99 7.01 -1.98 6.02 -3 5 C-1.125 1.125 -1.125 1.125 0 0 Z " fill="#F4F4F4" transform="translate(139,35)"/>
<path d="M0 0 C1.32 0.99 2.64 1.98 4 3 C3.67 4.32 3.34 5.64 3 7 C1.1875 7.6875 1.1875 7.6875 -1 8 C-2.75 6.6875 -2.75 6.6875 -4 5 C-4 4.34 -4 3.68 -4 3 C-2 1.375 -2 1.375 0 0 Z " fill="#EFEFEF" transform="translate(54,35)"/>
<path d="M0 0 C1.32 0.99 2.64 1.98 4 3 C3.67 4.32 3.34 5.64 3 7 C1.1875 7.6875 1.1875 7.6875 -1 8 C-2.75 6.6875 -2.75 6.6875 -4 5 C-4 4.34 -4 3.68 -4 3 C-2 1.375 -2 1.375 0 0 Z " fill="#EEEEEE" transform="translate(43,35)"/>
<path d="M0 0 C1.32 0.99 2.64 1.98 4 3 C3.67 4.32 3.34 5.64 3 7 C1.1875 7.6875 1.1875 7.6875 -1 8 C-2.75 6.6875 -2.75 6.6875 -4 5 C-4 4.34 -4 3.68 -4 3 C-2 1.375 -2 1.375 0 0 Z " fill="#EEEEEE" transform="translate(32,35)"/>
<path d="M0 0 C1.9375 0.875 1.9375 0.875 3.9375 3.875 C2.2875 5.195 0.6375 6.515 -1.0625 7.875 C-2.3825 6.225 -3.7025 4.575 -5.0625 2.875 C-2.63475434 -0.15968208 -2.63475434 -0.15968208 0 0 Z " fill="#F3F3F3" transform="translate(157.0625,30.125)"/>
<path d="M0 0 C1.65 1.65 3.3 3.3 5 5 C3.75 6.5625 3.75 6.5625 2 8 C-0.1875 7.6875 -0.1875 7.6875 -2 7 C-2.6875 5.1875 -2.6875 5.1875 -3 3 C-1.5625 1.25 -1.5625 1.25 0 0 Z " fill="#F2F2F2" transform="translate(59,84)"/>
<path d="M0 0 C0.66 0.33 1.32 0.66 2 1 C0.6875 2.5 0.6875 2.5 -1 4 C-1.99 4 -2.98 4 -4 4 C-4 4.66 -4 5.32 -4 6 C-2.68 6.66 -1.36 7.32 0 8 C0 9.32 0 10.64 0 12 C-0.66 12 -1.32 12 -2 12 C-4.39731331 8.80358226 -6.38479725 5.99881788 -7 2 C-6.01 2 -5.02 2 -4 2 C-3.319375 1.649375 -2.63875 1.29875 -1.9375 0.9375 C-1.298125 0.628125 -0.65875 0.31875 0 0 Z " fill="#4F4F4F" transform="translate(121,73)"/>
<path d="M0 0 C1.9375 0.25 1.9375 0.25 4 1 C4.66 1.99 5.32 2.98 6 4 C4.35 5.32 2.7 6.64 1 8 C-0.5625 6.75 -0.5625 6.75 -2 5 C-1.74853421 2.86254078 -1.54074221 1.54074221 0 0 Z " fill="#F1F1F1" transform="translate(36,74)"/>
<path d="M0 0 C3.875 1.75 3.875 1.75 5 4 C4.01 5.32 3.02 6.64 2 8 C0.68 7.34 -0.64 6.68 -2 6 C-2 2 -2 2 0 0 Z " fill="#EFEFEF" transform="translate(26,63)"/>
<path d="M0 0 C1.65 1.65 3.3 3.3 5 5 C3.35 6.32 1.7 7.64 0 9 C-1.32 7.35 -2.64 5.7 -4 4 C-3.34 4 -2.68 4 -2 4 C-2 3.34 -2 2.68 -2 2 C-1.34 2 -0.68 2 0 2 C0 1.34 0 0.68 0 0 Z " fill="#F2F2F2" transform="translate(59,51)"/>
<path d="M0 0 C1.32 0.66 2.64 1.32 4 2 C4 3.32 4 4.64 4 6 C2.02 6.99 2.02 6.99 0 8 C-1.5 6.625 -1.5 6.625 -3 5 C-3 4.34 -3 3.68 -3 3 C-2.34 3 -1.68 3 -1 3 C-0.67 2.01 -0.34 1.02 0 0 Z " fill="#F3F3F3" transform="translate(64,46)"/>
<path d="M0 0 C1.65 1.65 3.3 3.3 5 5 C3.68 5.99 2.36 6.98 1 8 C-0.65 7.01 -2.3 6.02 -4 5 C-2.68 3.35 -1.36 1.7 0 0 Z " fill="#EEEEEE" transform="translate(48,84)"/>
<path d="M0 0 C1.32 0.66 2.64 1.32 4 2 C3.67 3.65 3.34 5.3 3 7 C1.68 7 0.36 7 -1 7 C-1.66 5.68 -2.32 4.36 -3 3 C-2.01 2.01 -1.02 1.02 0 0 Z " fill="#F1F1F1" transform="translate(172,57)"/>
<path d="M0 0 C0.33 0 0.66 0 1 0 C1 1.65 1 3.3 1 5 C1.66 5.33 2.32 5.66 3 6 C4.28571429 12.42857143 4.28571429 12.42857143 3 15 C2.01 14.67 1.02 14.34 0 14 C-1.33257403 4.58997722 -1.33257403 4.58997722 0 0 Z " fill="#1A1A1A" transform="translate(16,53)"/>
<path d="M0 0 C1.32 0.66 2.64 1.32 4 2 C4 3.32 4 4.64 4 6 C2.02 6.99 2.02 6.99 0 8 C-0.66 7.34 -1.32 6.68 -2 6 C-1.44444444 1.44444444 -1.44444444 1.44444444 0 0 Z " fill="#F5F5F5" transform="translate(117,57)"/>
<path d="M0 0 C1.32 0.66 2.64 1.32 4 2 C3.67 3.65 3.34 5.3 3 7 C1.68 7 0.36 7 -1 7 C-1.66 5.68 -2.32 4.36 -3 3 C-2.01 2.01 -1.02 1.02 0 0 Z " fill="#F1F1F1" transform="translate(75,57)"/>
<path d="M0 0 C1.32 0.99 2.64 1.98 4 3 C3.67 4.32 3.34 5.64 3 7 C1.125 7.625 1.125 7.625 -1 8 C-1.66 7.34 -2.32 6.68 -3 6 C-2.63318342 3.06546739 -2.13562754 2.13562754 0 0 Z " fill="#F1F1F1" transform="translate(21,46)"/>
<path d="M0 0 C3.875 1.75 3.875 1.75 5 4 C3.68 5.32 2.36 6.64 1 8 C-0.32 7.01 -1.64 6.02 -3 5 C-1.125 1.125 -1.125 1.125 0 0 Z " fill="#F3F3F3" transform="translate(59,41)"/>
<path d="M0 0 C1.2375 0.1546875 1.2375 0.1546875 2.5 0.3125 C3.16 1.3025 3.82 2.2925 4.5 3.3125 C2.85 4.6325 1.2 5.9525 -0.5 7.3125 C-1.82 5.6625 -3.14 4.0125 -4.5 2.3125 C-2.5 0.3125 -2.5 0.3125 0 0 Z " fill="#F4F4F4" transform="translate(145.5,30.6875)"/>
<path d="M0 0 C1.65 0 3.3 0 5 0 C5 0.66 5 1.32 5 2 C7.31 2.33 9.62 2.66 12 3 C12 3.33 12 3.66 12 4 C6.72 4 1.44 4 -4 4 C-3.01 3.67 -2.02 3.34 -1 3 C-0.67 2.01 -0.34 1.02 0 0 Z " fill="#232323" transform="translate(132,92)"/>
<path d="M0 0 C3.875 1.75 3.875 1.75 5 4 C5.039992 5.99960012 5.04346799 8.00047242 5 10 C2 9 2 9 0 6 C-0.125 2.8125 -0.125 2.8125 0 0 Z " fill="#333234" transform="translate(101,37)"/>
<path d="M0 0 C0.33 0.99 0.66 1.98 1 3 C1.66 3.33 2.32 3.66 3 4 C1.35 6.31 -0.3 8.62 -2 11 C-2.33 10.34 -2.66 9.68 -3 9 C-3.66 8.67 -4.32 8.34 -5 8 C-4.34 6.68 -3.68 5.36 -3 4 C-2.34 4 -1.68 4 -1 4 C-0.67 2.68 -0.34 1.36 0 0 Z " fill="#292929" transform="translate(172,70)"/>
<path d="M0 0 C1.32 0.66 2.64 1.32 4 2 C3.67 3.32 3.34 4.64 3 6 C1.68 6.33 0.36 6.66 -1 7 C-1.66 5.68 -2.32 4.36 -3 3 C-2.01 2.01 -1.02 1.02 0 0 Z " fill="#F0F0F0" transform="translate(54,47)"/>
<path d="M0 0 C1.32 0.66 2.64 1.32 4 2 C3.34 3.65 2.68 5.3 2 7 C0.68 6.67 -0.64 6.34 -2 6 C-2 2 -2 2 0 0 Z " fill="#F1F1F1" transform="translate(43,58)"/>
<path d="M0 0 C1.32 0.66 2.64 1.32 4 2 C3.34 3.32 2.68 4.64 2 6 C0.68 6 -0.64 6 -2 6 C-2 2 -2 2 0 0 Z " fill="#F8F8F8" transform="translate(43,69)"/>
<path d="M0 0 C1.32 0.66 2.64 1.32 4 2 C3.34 3.32 2.68 4.64 2 6 C0.68 6 -0.64 6 -2 6 C-2 2 -2 2 0 0 Z " fill="#F7F7F7" transform="translate(32,69)"/>
<path d="M0 0 C1.32 0.66 2.64 1.32 4 2 C3.34 3.32 2.68 4.64 2 6 C0.68 6 -0.64 6 -2 6 C-2 2 -2 2 0 0 Z " fill="#F9F9F9" transform="translate(54,58)"/>
<path d="M0 0 C1.9375 0.5625 1.9375 0.5625 4 2 C4.75 5.625 4.75 5.625 5 9 C3.0625 8.4375 3.0625 8.4375 1 7 C0.25 3.375 0.25 3.375 0 0 Z " fill="#232323" transform="translate(88,43)"/>
<path d="M0 0 C5.27272727 0 5.27272727 0 8 1 C8.66 1.99 9.32 2.98 10 4 C9.01 5.32 8.02 6.64 7 8 C6.7525 7.360625 6.505 6.72125 6.25 6.0625 C5.20311706 3.80104993 5.20311706 3.80104993 2.9375 3.4375 C2.298125 3.293125 1.65875 3.14875 1 3 C0.67 2.01 0.34 1.02 0 0 Z " fill="#323232" transform="translate(60,35)"/>
<path d="M0 0 C4.42857143 5.14285714 4.42857143 5.14285714 5 9 C0.32307692 7.52307692 0.32307692 7.52307692 -1.3125 4.875 C-1.539375 4.25625 -1.76625 3.6375 -2 3 C-1.34 2.01 -0.68 1.02 0 0 Z " fill="#888888" transform="translate(72,46)"/>
<path d="M0 0 C0.99 0.33 1.98 0.66 3 1 C2.52433594 2.04220703 2.52433594 2.04220703 2.0390625 3.10546875 C0.90598948 6.26188644 0.59519989 8.97280167 0.375 12.3125 C0.30023438 13.38113281 0.22546875 14.44976562 0.1484375 15.55078125 C0.09945312 16.35902344 0.05046875 17.16726562 0 18 C-0.33 18 -0.66 18 -1 18 C-1.02684312 15.18743719 -1.04676188 12.37512759 -1.0625 9.5625 C-1.07087891 8.76005859 -1.07925781 7.95761719 -1.08789062 7.13085938 C-1.0965143 5.08704779 -1.0522815 3.04316098 -1 1 C-0.67 0.67 -0.34 0.34 0 0 Z " fill="#151515" transform="translate(112,63)"/>
<path d="M0 0 C3.73639216 1.24546405 4.18756513 2.63404953 6 6 C5.443125 5.649375 4.88625 5.29875 4.3125 4.9375 C1.42802833 3.76811959 -0.03169666 4.23889658 -3 5 C-3.99 5 -4.98 5 -6 5 C-2.25 1.125 -2.25 1.125 0 0 Z " fill="#878787" transform="translate(139,32)"/>
<path d="M0 0 C3.3 0 6.6 0 10 0 C10 0.99 10 1.98 10 3 C8.35 3.33 6.7 3.66 5 4 C5 3.34 5 2.68 5 2 C3.35 2 1.7 2 0 2 C0 1.34 0 0.68 0 0 Z " fill="#171717" transform="translate(41,27)"/>
<path d="M0 0 C1.32 0.66 2.64 1.32 4 2 C4 2.99 4 3.98 4 5 C2.02 5 0.04 5 -2 5 C-2 2 -2 2 0 0 Z " fill="#717171" transform="translate(139,88)"/>
<path d="M0 0 C1.4606285 2.64738916 2 3.89448334 2 7 C-0.31 6.67 -2.62 6.34 -5 6 C-3.35 4.02 -1.7 2.04 0 0 Z " fill="#7D7D7D" transform="translate(55,86)"/>
<path d="M0 0 C0.33 0.99 0.66 1.98 1 3 C0.67 3.66 0.34 4.32 0 5 C-0.22467831 6.53668865 -0.40796805 8.07968054 -0.5625 9.625 C-0.64628906 10.44226563 -0.73007813 11.25953125 -0.81640625 12.1015625 C-0.87699219 12.72804688 -0.93757813 13.35453125 -1 14 C-2.32 12.68 -3.64 11.36 -5 10 C-4.34 9.34 -3.68 8.68 -3 8 C-2.29618843 6.01276732 -1.6288189 4.01222047 -1 2 C-0.67 1.34 -0.34 0.68 0 0 Z " fill="#777777" transform="translate(81,55)"/>
<path d="M0 0 C1.1875 1.6875 1.1875 1.6875 2 4 C0.625 6.75 0.625 6.75 -1 9 C-1.66 8.67 -2.32 8.34 -3 8 C-2.25 2.25 -2.25 2.25 0 0 Z " fill="#202020" transform="translate(19,37)"/>
<path d="M0 0 C-0.639375 0.268125 -1.27875 0.53625 -1.9375 0.8125 C-4.33131686 1.88667752 -4.33131686 1.88667752 -5 5 C-5.66 4.34 -6.32 3.68 -7 3 C-8.32 3 -9.64 3 -11 3 C-10.67 2.01 -10.34 1.02 -10 0 C-6.58729758 -1.51675663 -3.55830874 -0.72783588 0 0 Z " fill="#2B2B2B" transform="translate(165,28)"/>
<path d="M0 0 C1.65 0 3.3 0 5 0 C5.103125 0.78375 5.20625 1.5675 5.3125 2.375 C5.77595022 5.33045181 5.77595022 5.33045181 9 7 C9 7.66 9 8.32 9 9 C5.18063472 7.44396229 2.73955562 5.04395069 0 2 C0 1.34 0 0.68 0 0 Z " fill="#373737" transform="translate(19,53)"/>
<path d="M0 0 C0.99 0.33 1.98 0.66 3 1 C4.1875 4.0625 4.1875 4.0625 5 7 C1.62496331 5.8141763 -0.64722731 4.72426311 -3 2 C-2.01 2 -1.02 2 0 2 C0 1.34 0 0.68 0 0 Z " fill="#2B2B2B" transform="translate(85,100)"/>
<path d="M0 0 C-0.33 0.99 -0.66 1.98 -1 3 C-0.01 3.33 0.98 3.66 2 4 C-1.46941546 3.54177532 -4.67395049 3.10868317 -8 2 C-8 1.34 -8 0.68 -8 0 C-5.13822943 -1.43088528 -3.06624227 -0.59991697 0 0 Z " fill="#393939" transform="translate(50,92)"/>
<path d="M0 0 C0 2.31 0 4.62 0 7 C-1.32 6.67 -2.64 6.34 -4 6 C-4 3 -4 3 -2.5625 1.3125 C-1 0 -1 0 0 0 Z " fill="#787878" transform="translate(177,51)"/>
<path d="M0 0 C0.99 0.99 1.98 1.98 3 3 C1.35 4.32 -0.3 5.64 -2 7 C-2.6875 5.1875 -2.6875 5.1875 -3 3 C-1.5625 1.25 -1.5625 1.25 0 0 Z " fill="#E7E7E7" transform="translate(125,42)"/>
<path d="M0 0 C1.98 0 3.96 0 6 0 C5.67 1.32 5.34 2.64 5 4 C3.35 3.67 1.7 3.34 0 3 C0 2.01 0 1.02 0 0 Z " fill="#797979" transform="translate(148,29)"/>
<path d="M0 0 C3.63 0 7.26 0 11 0 C11 0.33 11 0.66 11 1 C9.02 1 7.04 1 5 1 C4.67 1.99 4.34 2.98 4 4 C1.525 3.01 1.525 3.01 -1 2 C-0.67 1.34 -0.34 0.68 0 0 Z " fill="#363636" transform="translate(36,26)"/>
<path d="M0 0 C0.99 0.33 1.98 0.66 3 1 C2.1875 2.9375 2.1875 2.9375 1 5 C0.01 5.33 -0.98 5.66 -2 6 C-2 2 -2 2 0 0 Z " fill="#EEEEEE" transform="translate(161,79)"/>
<path d="M0 0 C0.66 0.33 1.32 0.66 2 1 C1.34 2.65 0.68 4.3 0 6 C-0.99 6 -1.98 6 -3 6 C-3 3 -3 3 -1.5 1.3125 C-0.7575 0.6628125 -0.7575 0.6628125 0 0 Z " fill="#EDEDED" transform="translate(167,73)"/>
<path d="M0 0 C1.32 0.99 2.64 1.98 4 3 C3.67 4.32 3.34 5.64 3 7 C1.68 6.01 0.36 5.02 -1 4 C-0.67 2.68 -0.34 1.36 0 0 Z " fill="#E8E8E8" transform="translate(68,42)"/>
<path d="M0 0 C0.66 0.33 1.32 0.66 2 1 C1.34 2.32 0.68 3.64 0 5 C-1.32 5 -2.64 5 -4 5 C-2.25 1.125 -2.25 1.125 0 0 Z " fill="#ECECEC" transform="translate(131,37)"/>
<path d="M0 0 C2.475 0.495 2.475 0.495 5 1 C5.33 2.32 5.66 3.64 6 5 C4.125 4.75 4.125 4.75 2 4 C0.75 1.9375 0.75 1.9375 0 0 Z " fill="#E7E7E7" transform="translate(61,38)"/>
<path d="M0 0 C0.33 0.99 0.66 1.98 1 3 C-0.65 3.33 -2.3 3.66 -4 4 C-4.99 2.68 -5.98 1.36 -7 0 C-3.89953913 -1.03348696 -2.94389782 -1.17755913 0 0 Z " fill="#3D3D3D" transform="translate(146,28)"/>
<path d="M0 0 C0.99 0.99 1.98 1.98 3 3 C1.1875 4.5625 1.1875 4.5625 -1 6 C-1.99 5.67 -2.98 5.34 -4 5 C-2.68 3.35 -1.36 1.7 0 0 Z " fill="#DCDCDC" transform="translate(70,84)"/>
<path d="M0 0 C1.32 0.66 2.64 1.32 4 2 C4 3.32 4 4.64 4 6 C2.35 5.01 0.7 4.02 -1 3 C-0.67 2.01 -0.34 1.02 0 0 Z " fill="#ECECEC" transform="translate(31,79)"/>
<path d="M0 0 C1.875 0.3125 1.875 0.3125 4 1 C4.66 1.99 5.32 2.98 6 4 C5.67 4.66 5.34 5.32 5 6 C4.01 5.67 3.02 5.34 2 5 C0.8125 2.4375 0.8125 2.4375 0 0 Z " fill="#E9E9E9" transform="translate(25,74)"/>
<path d="M0 0 C0 0.99 0 1.98 0 3 C-1.98 3.66 -3.96 4.32 -6 5 C-6.66 4.34 -7.32 3.68 -8 3 C-2.25 0 -2.25 0 0 0 Z " fill="#272628" transform="translate(120,94)"/>
<path d="M0 0 C0.99 0.99 1.98 1.98 3 3 C1.6875 4.5 1.6875 4.5 0 6 C-0.99 6 -1.98 6 -3 6 C-1.125 1.125 -1.125 1.125 0 0 Z " fill="#DDDDDD" transform="translate(23,37)"/>
<path d="M0 0 C-0.66 1.32 -1.32 2.64 -2 4 C-3.32 4 -4.64 4 -6 4 C-5.67 3.01 -5.34 2.02 -5 1 C-3 0 -3 0 0 0 Z " fill="#E0E0E0" transform="translate(31,33)"/>
<path d="M0 0 C1.61949011 2.57213134 2.04408751 3.67669159 1.625 6.75 C1.41875 7.4925 1.2125 8.235 1 9 C0.67 8.01 0.34 7.02 0 6 C-0.66 6 -1.32 6 -2 6 C-1.34 4.02 -0.68 2.04 0 0 Z " fill="#343434" transform="translate(107,88)"/>
<path d="M0 0 C1.65 1.65 3.3 3.3 5 5 C3.68 5 2.36 5 1 5 C0.34 3.68 -0.32 2.36 -1 1 C-0.67 0.67 -0.34 0.34 0 0 Z " fill="#E8E8E8" transform="translate(123,84)"/>
<path d="M0 0 C0.66 0 1.32 0 2 0 C1.49396008 2.16874252 1.00016187 3.99967627 0 6 C-0.99 5.67 -1.98 5.34 -3 5 C-1.125 1.125 -1.125 1.125 0 0 Z " fill="#E7E7E7" transform="translate(75,79)"/>
<path d="M0 0 C1.98 0.99 1.98 0.99 4 2 C4 3.32 4 4.64 4 6 C3.34 6 2.68 6 2 6 C0 3 0 3 0 0 Z " fill="#EBEBEB" transform="translate(117,79)"/>
<path d="M0 0 C0.99 0 1.98 0 3 0 C2.67 1.65 2.34 3.3 2 5 C0.68 4.34 -0.64 3.68 -2 3 C-1.34 2.01 -0.68 1.02 0 0 Z " fill="#262526" transform="translate(104,94)"/>
<path d="M0 0 C2.31 0.33 4.62 0.66 7 1 C6.01 1.33 5.02 1.66 4 2 C4 2.66 4 3.32 4 4 C2.35 3.67 0.7 3.34 -1 3 C-0.67 2.01 -0.34 1.02 0 0 Z " fill="#171717" transform="translate(50,92)"/>
<path d="M0 0 C0.99 0 1.98 0 3 0 C3 0.99 3 1.98 3 3 C2.38125 3.28875 1.7625 3.5775 1.125 3.875 C-1.13325765 4.93720042 -1.13325765 4.93720042 -3 7 C-3 3.47190093 -2.35723489 2.53184488 0 0 Z " fill="#505050" transform="translate(36,71)"/>
<path d="M0 0 C1.65 0.99 3.3 1.98 5 3 C4.67 3.99 4.34 4.98 4 6 C2.35 5.01 0.7 4.02 -1 3 C-0.67 2.01 -0.34 1.02 0 0 Z " fill="#EBEBEB" transform="translate(164,32)"/>
<path d="M0 0 C2.475 0.99 2.475 0.99 5 2 C4.01 2.99 3.02 3.98 2 5 C2 4.34 2 3.68 2 3 C0.68 2.67 -0.64 2.34 -2 2 C-1.34 1.34 -0.68 0.68 0 0 Z " fill="#1C1C1C" transform="translate(60,32)"/>
<path d="M0 0 C1.65 0 3.3 0 5 0 C5.33 0.99 5.66 1.98 6 3 C4.68 3.33 3.36 3.66 2 4 C1.34 2.68 0.68 1.36 0 0 Z " fill="#9A9A9A" transform="translate(41,29)"/>
</svg>
