<svg xmlns="http://www.w3.org/2000/svg" viewBox="0 0 100 100">
  <!-- Pickleball Paddle -->
  <!-- Handle -->
  <rect x="70" y="70" width="12" height="28" rx="3" fill="#8B4513" transform="rotate(-45 76 84)"/>
  <rect x="72" y="72" width="8" height="24" rx="2" fill="#A0522D" transform="rotate(-45 76 84)"/>

  <!-- Paddle face -->
  <ellipse cx="42" cy="42" rx="32" ry="38" fill="#2E7D32" stroke="#1B5E20" stroke-width="3" transform="rotate(-45 42 42)"/>
  <ellipse cx="42" cy="42" rx="28" ry="34" fill="#43A047" transform="rotate(-45 42 42)"/>

  <!-- Paddle texture (honeycomb pattern) -->
  <circle cx="30" cy="30" r="4" fill="#2E7D32" opacity="0.5"/>
  <circle cx="42" cy="28" r="4" fill="#2E7D32" opacity="0.5"/>
  <circle cx="54" cy="32" r="4" fill="#2E7D32" opacity="0.5"/>
  <circle cx="28" cy="42" r="4" fill="#2E7D32" opacity="0.5"/>
  <circle cx="40" cy="42" r="4" fill="#2E7D32" opacity="0.5"/>
  <circle cx="52" cy="44" r="4" fill="#2E7D32" opacity="0.5"/>
  <circle cx="34" cy="54" r="4" fill="#2E7D32" opacity="0.5"/>
  <circle cx="46" cy="54" r="4" fill="#2E7D32" opacity="0.5"/>

  <!-- Pickleball (wiffle ball style) -->
  <circle cx="78" cy="22" r="16" fill="#FFEB3B" stroke="#FBC02D" stroke-width="2"/>
  <!-- Ball holes -->
  <circle cx="72" cy="16" r="3" fill="#FBC02D"/>
  <circle cx="82" cy="14" r="2.5" fill="#FBC02D"/>
  <circle cx="86" cy="22" r="2.5" fill="#FBC02D"/>
  <circle cx="78" cy="22" r="3" fill="#FBC02D"/>
  <circle cx="72" cy="26" r="2.5" fill="#FBC02D"/>
  <circle cx="82" cy="28" r="2.5" fill="#FBC02D"/>
</svg>
