<?xml version="1.0" standalone="no"?>
<!DOCTYPE svg PUBLIC "-//W3C//DTD SVG 20010904//EN"
 "http://www.w3.org/TR/2001/REC-SVG-20010904/DTD/svg10.dtd">
<svg version="1.0" xmlns="http://www.w3.org/2000/svg"
 width="300.000000pt" height="242.000000pt" viewBox="0 0 300.000000 242.000000"
 preserveAspectRatio="xMidYMid meet">
<metadata>
Created by potrace 1.10, written by Peter Selinger 2001-2011
</metadata>
<g transform="translate(0.000000,242.000000) scale(0.100000,-0.100000)"
fill="#000000" stroke="none">
<path d="M388 2225 c-89 -22 -157 -62 -223 -129 -103 -104 -141 -213 -133
-382 4 -71 12 -120 31 -172 70 -199 240 -386 431 -472 106 -48 184 -63 351
-65 190 -3 264 -27 428 -139 37 -25 71 -46 75 -46 4 0 29 22 55 48 l47 48 -64
97 c-105 160 -118 200 -127 412 -4 105 -14 202 -22 233 -71 250 -281 467 -536
552 -83 28 -235 35 -313 15z m181 -81 l-23 -24 -23 22 c-13 12 -23 24 -23 27
0 4 21 5 46 3 l45 -4 -22 -24z m-71 -7 l32 -33 -40 -39 -40 -39 -40 39 -40 39
32 33 c18 18 39 33 48 33 9 0 30 -15 48 -33z m-123 3 c-13 -15 -22 -17 -29
-10 -12 12 8 30 33 30 11 0 10 -5 -4 -20z m315 -7 l31 -28 -40 -40 -41 -39
-40 39 -40 39 27 28 c34 35 64 35 103 1z m-362 -15 c9 -9 4 -20 -25 -50 -20
-21 -42 -38 -48 -38 -10 0 -40 39 -33 44 18 15 84 56 88 56 3 0 11 -5 18 -12z
m530 -51 c10 -8 9 -14 -5 -29 -16 -18 -18 -17 -55 19 -52 51 -50 70 5 42 23
-12 48 -26 55 -32z m-463 -97 l-41 -40 -39 40 -39 40 39 40 39 40 41 -40 40
-40 -40 -40z m195 75 l34 -35 -39 -40 -39 -40 -40 40 -40 40 34 35 c19 19 39
35 45 35 6 0 26 -16 45 -35z m193 -3 l37 -38 -40 -39 -40 -39 -41 41 -41 41
38 36 c22 19 41 36 44 36 3 0 23 -17 43 -38z m-560 -16 c15 -22 14 -25 -23
-61 -35 -34 -60 -40 -60 -13 0 14 53 98 61 98 4 0 14 -11 22 -24z m717 -19
c35 -27 36 -38 10 -62 -20 -18 -21 -18 -60 20 -38 37 -39 40 -23 57 19 21 32
18 73 -15z m-611 -92 c1 -6 -16 -28 -37 -48 l-38 -37 -39 40 -39 40 39 40 38
39 38 -32 c20 -18 38 -37 38 -42z m163 38 l38 -37 -37 -38 c-20 -21 -40 -38
-45 -38 -4 0 -23 17 -43 37 l-36 37 38 38 c20 21 39 38 42 38 3 0 22 -17 43
-37z m193 -3 l39 -40 -40 -40 -41 -39 -38 39 -38 39 34 40 c19 21 36 40 39 40
3 1 24 -17 45 -39z m190 -80 l-41 -40 -39 40 -39 40 39 40 39 40 41 -40 40
-40 -40 -40z m152 50 c33 -41 36 -54 15 -73 -17 -16 -20 -15 -57 23 -38 39
-38 40 -20 60 24 26 35 25 62 -10z m-905 -33 c-24 -23 -24 -23 -7 30 4 12 8
14 17 5 9 -9 7 -17 -10 -35z m81 -35 l37 -38 -40 -39 -40 -39 -35 34 c-19 19
-35 37 -35 42 0 10 60 78 69 78 4 0 24 -17 44 -38z m191 2 l38 -36 -41 -41
-41 -41 -35 34 c-19 19 -35 39 -35 44 0 10 59 73 70 75 3 0 22 -16 44 -35z
m193 4 c18 -18 33 -37 33 -43 0 -6 -16 -26 -35 -45 l-35 -34 -41 41 -41 41 38
36 c22 19 41 36 44 36 2 0 19 -14 37 -32z m196 -6 l37 -38 -40 -39 -40 -39
-40 39 -40 39 37 38 c20 21 40 38 43 38 3 0 23 -17 43 -38z m190 0 l37 -38
-40 -39 -40 -39 -40 39 -40 39 37 38 c20 21 40 38 43 38 3 0 23 -17 43 -38z
m142 -63 c30 -58 17 -65 -32 -17 -35 34 -40 47 -21 66 16 16 25 8 53 -49z
m-819 -109 l-41 -39 -40 39 -39 40 39 40 39 40 42 -41 41 -41 -41 -38z m387
-1 l-41 -42 -36 36 c-20 20 -36 40 -36 44 0 4 17 24 37 45 l37 38 41 -40 40
-40 -42 -41z m192 1 l-41 -40 -39 40 -39 40 39 40 39 40 41 -40 40 -40 -40
-40z m192 -1 l-42 -38 -39 39 -39 38 39 40 39 40 42 -41 42 -40 -42 -38z
m-572 75 l39 -35 -42 -42 -42 -41 -40 39 -40 39 37 38 c20 21 40 38 43 38 3
-1 23 -17 45 -36z m-372 -58 c-26 -32 -33 -25 -33 33 l0 46 26 -27 27 -26 -20
-26z m81 -35 l38 -39 -44 -40 -43 -41 -17 22 c-10 12 -23 35 -29 50 -11 25 -9
31 16 57 16 17 31 30 35 30 3 0 23 -17 44 -39z m189 -80 l-40 -40 -38 39 -39
40 39 40 39 40 40 -39 40 -40 -41 -40z m226 44 c1 -6 -16 -28 -37 -48 l-38
-37 -39 40 -39 40 39 40 38 39 38 -32 c20 -18 38 -37 38 -42z m164 37 l37 -38
-40 -39 -40 -39 -40 39 -40 39 37 38 c20 21 40 38 43 38 3 0 23 -17 43 -38z
m192 -2 c22 -23 35 -43 30 -48 -6 -4 -25 -20 -43 -37 l-32 -29 -40 39 -40 39
37 37 c21 20 40 37 43 38 3 0 24 -17 45 -39z m201 -32 c5 -25 1 -36 -23 -59
l-29 -29 -39 40 -39 40 39 40 39 40 22 -21 c13 -12 26 -35 30 -51z m-873 -66
l37 -38 -40 -39 -40 -39 -41 41 -41 41 38 36 c22 19 41 36 44 36 3 0 23 -17
43 -38z m190 0 l37 -38 -40 -39 -40 -39 -40 39 -40 39 37 38 c20 21 40 38 43
38 3 0 23 -17 43 -38z m191 2 l38 -36 -41 -41 -41 -41 -40 39 -40 39 37 38
c20 21 40 38 43 38 3 0 22 -17 44 -36z m193 4 c18 -18 33 -37 32 -42 0 -6 -18
-26 -39 -44 l-39 -34 -36 36 c-19 19 -35 38 -35 42 0 9 64 72 75 73 5 1 24
-13 42 -31z m196 -6 l37 -38 -40 -39 -40 -39 -40 39 -40 39 37 38 c20 21 40
38 43 38 3 0 23 -17 43 -38z m120 -81 c-2 -3 -14 6 -28 19 l-25 24 22 24 23
24 5 -44 c3 -23 4 -45 3 -47z m-988 -11 c32 -33 36 -41 25 -55 -19 -23 -26
-19 -54 29 -45 76 -32 88 29 26z m190 -80 l-41 -40 -39 40 -39 40 39 40 39 40
41 -40 40 -40 -40 -40z m190 0 l-41 -40 -39 40 -39 40 39 40 39 40 41 -40 40
-40 -40 -40z m232 44 c2 0 -16 -20 -39 -43 l-41 -43 -41 41 -41 42 40 38 40
38 40 -36 c22 -20 41 -36 42 -37z m158 -44 l-41 -40 -39 40 -39 40 39 40 39
40 41 -40 40 -40 -40 -40z m215 40 c0 -9 -15 -30 -33 -48 l-33 -32 -39 40 -39
40 39 40 39 40 33 -32 c18 -18 33 -39 33 -48z m-887 -58 l37 -38 -24 -23 -23
-22 -37 42 c-34 40 -35 44 -19 61 9 10 19 18 22 18 3 0 23 -17 44 -38z m190 0
l37 -38 -40 -39 -40 -39 -40 39 -40 39 37 38 c20 21 40 38 43 38 3 0 23 -17
43 -38z m192 -2 l39 -40 -40 -34 c-21 -20 -41 -35 -45 -36 -3 0 -20 16 -39 35
-31 32 -32 36 -18 52 8 10 24 28 34 41 10 12 21 22 24 22 3 0 23 -18 45 -40z
m224 -35 c1 -12 -60 -75 -74 -75 -6 0 -26 16 -45 35 l-34 35 39 40 38 39 38
-32 c20 -18 38 -36 38 -42z m164 37 l37 -38 -40 -39 -40 -39 -40 39 -40 39 37
38 c20 21 40 38 43 38 3 0 23 -17 43 -38z m107 -14 c0 -22 -17 -41 -30 -33 -8
5 -7 12 6 26 20 22 24 23 24 7z m44 -69 c8 -49 7 -50 -22 -42 -24 6 -29 32
-12 64 16 30 27 23 34 -22z m-829 -15 l38 -35 -21 -22 -22 -21 -40 39 c-37 36
-39 40 -23 57 22 24 24 23 68 -18z m192 4 c18 -18 33 -37 32 -42 0 -6 -18 -25
-38 -43 l-38 -32 -39 40 -39 41 40 34 c22 18 42 34 45 34 2 0 19 -14 37 -32z
m190 0 c18 -18 33 -37 33 -43 0 -6 -16 -26 -35 -45 l-35 -34 -40 39 -40 39 37
38 c20 21 39 38 42 38 3 0 20 -14 38 -32z m197 -4 l38 -36 -41 -41 -41 -41
-40 39 -40 39 37 38 c20 21 40 38 43 38 3 0 22 -17 44 -36z m169 23 c6 -16
-43 -97 -58 -97 -6 0 -16 10 -23 21 -12 19 -10 25 19 55 35 36 54 42 62 21z
m-648 -117 c21 -22 36 -43 32 -46 -8 -9 -83 24 -98 43 -9 10 -8 17 1 28 18 21
21 20 65 -25z m200 -70 c-32 -34 -57 -34 -101 -2 -31 23 -30 30 13 74 l37 38
40 -40 40 -40 -29 -30z m185 -5 c-19 -19 -39 -35 -45 -35 -6 0 -26 16 -45 35
l-34 35 39 40 39 40 40 -40 40 -40 -34 -35z m152 48 c-67 -59 -107 -35 -47 27
37 38 38 38 61 22 l24 -17 -38 -32z m192 1 c16 -36 53 -103 82 -147 79 -121
73 -131 -36 -57 -64 43 -196 110 -217 110 -24 0 -13 16 32 49 24 17 57 49 72
71 15 22 30 40 33 40 3 0 18 -30 34 -66z m-454 -59 l23 -25 -53 0 -53 0 23 25
c13 14 26 25 30 25 4 0 17 -11 30 -25z m244 -31 c10 -25 7 -32 -11 -29 -78 16
-77 15 -57 30 25 19 60 19 68 -1z"/>
<path d="M2385 2233 c-177 -25 -360 -133 -489 -289 -66 -79 -106 -153 -141
-259 -24 -70 -28 -100 -32 -235 -5 -178 -14 -231 -55 -315 -43 -88 -130 -215
-148 -215 -8 0 -145 -133 -304 -295 -159 -163 -309 -308 -332 -324 l-43 -28
75 -74 c70 -69 76 -73 86 -54 6 11 152 162 324 336 173 173 314 320 314 327 0
13 120 97 190 132 103 52 147 62 315 65 125 3 176 8 233 25 143 40 251 109
368 233 136 144 207 313 206 492 0 149 -45 257 -144 352 -111 104 -260 148
-423 126z m80 -83 l-29 -30 -24 23 -24 22 29 6 c15 4 39 7 52 8 l25 1 -29 -30z
m113 -13 l32 -33 -40 -39 -40 -39 -40 39 -40 39 32 33 c18 18 39 33 48 33 9 0
30 -15 48 -33z m-185 -5 l27 -28 -40 -39 -40 -39 -40 39 c-22 21 -40 42 -40
45 1 11 66 50 85 50 12 0 33 -13 48 -28z m231 22 c16 -6 23 -34 8 -34 -10 0
-32 22 -32 32 0 10 3 10 24 2z m92 -51 c48 -31 53 -42 26 -66 -17 -16 -21 -14
-56 22 -25 25 -37 45 -33 55 8 21 13 20 63 -11z m-486 9 c0 -18 -79 -84 -94
-79 -29 11 -16 36 32 61 51 27 62 30 62 18z m279 -107 c0 -5 -18 -24 -38 -42
l-38 -32 -38 39 -39 40 39 40 39 40 38 -37 c21 -20 38 -42 37 -48z m161 -39
l-40 -40 -40 39 -39 38 37 42 37 42 43 -41 42 -40 -40 -40z m-385 78 l38 -36
-41 -40 -40 -41 -36 38 c-20 21 -36 40 -36 43 0 8 63 72 71 72 3 0 23 -16 44
-36z m555 -86 c0 -33 -22 -30 -61 8 l-39 38 22 23 21 23 28 -38 c16 -20 29
-45 29 -54z m-719 66 c11 -13 6 -21 -29 -57 l-42 -42 -22 23 -23 23 37 35 c42
38 59 42 79 18z m68 -75 l34 -40 -39 -40 -40 -39 -39 40 -39 40 39 40 c21 22
42 40 45 39 3 0 20 -19 39 -40z m189 3 l39 -39 -38 -41 -39 -41 -39 42 -40 42
36 37 c21 21 38 38 40 38 2 0 20 -17 41 -38z m197 -82 l-41 -40 -39 40 -39 40
39 40 39 40 41 -40 40 -40 -40 -40z m190 0 l-41 -40 -39 40 -39 40 39 40 39
40 41 -40 40 -40 -40 -40z m-750 60 c18 -20 18 -21 -20 -60 -36 -37 -40 -39
-57 -23 -23 21 -23 22 13 66 35 43 40 44 64 17z m858 -30 c3 -11 2 -20 -3 -20
-14 0 -32 29 -25 40 9 14 21 5 28 -20z m-780 -48 l37 -38 -40 -39 -40 -39 -40
39 -40 39 37 38 c20 21 40 38 43 38 3 0 23 -17 43 -38z m191 0 l37 -39 -36
-36 c-21 -21 -40 -37 -43 -37 -10 0 -72 63 -72 74 0 11 60 76 70 76 3 0 23
-17 44 -38z m190 4 c20 -19 36 -38 36 -42 0 -11 -62 -74 -73 -74 -4 0 -24 17
-43 37 l-35 36 38 39 c20 21 38 38 39 38 0 0 18 -15 38 -34z m199 -4 l37 -38
-40 -39 -40 -39 -40 39 -40 39 37 38 c20 21 40 38 43 38 3 0 23 -17 43 -38z
m184 6 c18 -18 33 -37 33 -43 0 -6 -16 -26 -35 -45 l-35 -34 -40 39 -40 39 37
38 c20 21 39 38 42 38 3 0 20 -14 38 -32z m-955 -81 c-54 -54 -69 -44 -31 21
30 52 31 53 50 36 20 -18 19 -18 -19 -57z m93 -97 l-41 -40 -39 40 -39 40 39
40 39 40 41 -40 40 -40 -40 -40z m225 40 c0 -3 -17 -22 -36 -44 l-36 -38 -41
41 -42 41 40 39 40 40 38 -37 c20 -20 37 -39 37 -42z m351 -44 l-40 -40 -36
37 c-19 20 -35 39 -35 44 0 4 17 24 37 45 l37 38 39 -42 38 -42 -40 -40z m194
4 l-41 -40 -39 40 -39 40 39 40 39 40 41 -40 40 -40 -40 -40z m-382 72 l37
-38 -40 -39 -40 -39 -40 39 -40 39 37 38 c20 21 40 38 43 38 3 0 23 -17 43
-38z m507 -34 l0 -53 -27 27 -27 27 24 26 c13 14 25 25 27 25 2 0 3 -24 3 -52z
m-994 -54 c19 -20 34 -40 34 -43 0 -4 -17 -24 -38 -44 l-38 -37 -27 32 c-22
24 -27 38 -22 57 6 23 41 71 52 71 3 0 20 -16 39 -36z m199 -4 c21 -22 37 -41
34 -42 -2 -2 -21 -19 -42 -37 l-37 -35 -40 39 -40 39 37 38 c20 21 40 38 43
38 3 0 23 -18 45 -40z m190 0 l39 -40 -34 -35 c-19 -19 -39 -35 -45 -35 -6 0
-26 16 -45 35 l-33 34 34 40 c19 21 36 40 39 40 3 1 24 -17 45 -39z m190 -80
l-41 -40 -39 40 -39 40 39 40 39 40 41 -40 40 -40 -40 -40z m189 84 c20 -20
36 -39 36 -42 0 -9 -63 -72 -72 -72 -5 0 -25 16 -45 36 l-35 36 38 39 c21 21
39 39 40 39 1 0 18 -16 38 -36z m190 7 c31 -32 29 -59 -8 -106 l-23 -28 -36
39 c-20 21 -37 43 -37 49 0 10 60 75 70 75 3 0 19 -13 34 -29z m-856 -107 l35
-36 -41 -41 -42 -41 -35 34 c-19 19 -35 38 -35 44 0 13 61 76 73 76 6 0 26
-16 45 -36z m189 4 c18 -18 33 -37 33 -42 0 -6 -16 -27 -35 -46 l-35 -34 -40
39 -40 39 37 38 c20 21 39 38 42 38 3 0 20 -14 38 -32z m196 -6 l37 -38 -40
-39 -40 -39 -40 39 -40 39 37 38 c20 21 40 38 43 38 3 0 23 -17 43 -38z m190
0 l37 -38 -40 -39 -40 -39 -40 39 -40 39 37 38 c20 21 40 38 43 38 3 0 23 -17
43 -38z m191 2 c20 -20 36 -39 35 -42 0 -4 -19 -22 -41 -41 l-39 -35 -35 38
c-19 20 -34 40 -34 44 0 8 62 72 71 72 4 0 23 -16 43 -36z m-944 -16 c18 -22
18 -24 -2 -45 -12 -13 -24 -23 -27 -23 -4 0 -5 20 -3 45 2 25 6 45 9 45 3 0
13 -10 23 -22z m110 -120 c0 -4 -17 -23 -37 -42 l-38 -35 -32 32 c-41 39 -41
53 -1 94 l32 33 38 -37 c21 -20 38 -41 38 -45z m161 41 l42 -41 -41 -41 -42
-41 -40 39 -39 38 37 43 c20 23 38 43 39 43 1 1 20 -17 44 -40z m194 -79 l-41
-40 -39 40 -39 40 39 40 39 40 41 -40 40 -40 -40 -40z m190 0 l-41 -40 -39 40
-39 40 39 40 39 40 41 -40 40 -40 -40 -40z m192 -1 l-42 -38 -40 40 -39 39 39
40 39 40 43 -42 42 -41 -42 -38z m143 61 c-24 -52 -39 -60 -60 -35 -10 12 -5
22 29 56 23 23 44 39 48 35 3 -3 -4 -29 -17 -56z m-812 -154 c-19 -20 -39 -36
-45 -36 -5 0 -24 16 -43 35 l-34 35 39 40 39 40 40 -39 39 -39 -35 -36z m187
79 c19 -19 35 -38 35 -42 0 -12 -63 -73 -75 -73 -6 0 -26 16 -45 35 l-34 35
39 40 c21 22 41 40 42 40 2 0 19 -16 38 -35z m198 -3 l37 -38 -40 -39 -40 -39
-40 39 -40 39 37 38 c20 21 40 38 43 38 3 0 23 -17 43 -38z m192 -2 c21 -22
37 -41 34 -42 -2 -2 -21 -19 -42 -37 l-37 -35 -40 39 -40 39 37 38 c20 21 40
38 43 38 3 0 23 -18 45 -40z m170 20 c18 -20 18 -21 -11 -53 -16 -17 -32 -36
-36 -41 -8 -10 -48 20 -48 35 0 8 61 76 71 78 3 0 14 -8 24 -19z m-945 -111
c0 -19 -35 -45 -44 -31 -3 4 -1 25 3 45 5 20 8 38 7 39 0 2 7 -5 17 -15 9 -11
17 -28 17 -38z m123 -61 c-23 -25 -27 -23 -62 23 -24 34 -28 46 -20 62 10 18
14 17 55 -24 41 -40 43 -44 27 -61z m170 54 l37 -38 -40 -39 -40 -39 -40 39
-40 39 37 38 c20 21 40 38 43 38 3 0 23 -17 43 -38z m192 2 l38 -36 -41 -41
-42 -41 -35 34 c-19 19 -35 38 -35 44 0 11 60 76 71 76 3 0 23 -16 44 -36z
m195 1 l34 -35 -42 -42 c-22 -23 -43 -40 -44 -37 -2 2 -19 21 -37 42 l-35 37
34 35 c19 19 39 35 45 35 6 0 26 -16 45 -35z m173 17 c16 -17 14 -21 -23 -57
l-40 -39 -21 20 -20 21 33 35 c39 41 49 44 71 20z m-715 -226 c-2 -1 -30 -13
-63 -26 -66 -26 -140 -69 -196 -112 -70 -53 -77 -33 -19 52 43 63 120 215 120
237 0 7 36 -24 80 -69 44 -45 79 -82 78 -82z m83 60 c-15 -17 -27 -13 -76 28
-30 24 -30 24 -11 45 l20 22 40 -40 c33 -34 37 -42 27 -55z m169 -21 c-19 -19
-39 -35 -45 -35 -6 0 -26 16 -45 35 l-34 35 39 40 39 40 40 -40 40 -40 -34
-35z m191 73 l40 -43 -27 -22 c-47 -37 -72 -38 -107 -3 l-31 30 39 40 c22 22
41 39 43 40 2 0 21 -19 43 -42z m167 30 c19 -19 15 -25 -33 -53 -62 -37 -74
-27 -28 22 43 47 45 47 61 31z m-473 -108 c17 -18 17 -20 2 -15 -9 3 -24 7
-33 10 -8 3 -12 9 -9 15 9 15 20 12 40 -10z m193 1 c12 -11 22 -22 22 -25 0
-3 -23 -6 -52 -6 l-51 0 23 25 c28 30 29 30 58 6z m-232 -35 c18 -14 18 -15
-9 -20 -81 -18 -76 -18 -64 9 13 28 43 32 73 11z m-427 -180 c20 -21 21 -27
10 -48 -18 -34 -621 -638 -637 -638 -8 0 -27 14 -44 32 l-30 32 324 323 c178
178 331 323 339 323 9 0 26 -11 38 -24z"/>
<path d="M1425 2056 c-16 -7 -41 -25 -54 -40 l-24 -26 40 -37 c47 -44 68 -104
58 -164 l-7 -39 55 0 c44 0 61 5 95 30 23 17 42 35 42 41 0 6 -14 22 -30 36
-44 37 -62 79 -64 147 l-1 61 -40 2 c-22 2 -53 -3 -70 -11z m73 -56 c5 -50 25
-106 48 -137 29 -38 29 -42 7 -59 -41 -31 -73 -12 -73 42 0 28 -36 108 -56
125 -20 17 -17 26 14 43 37 21 56 16 60 -14z"/>
<path d="M1564 2036 c-13 -33 7 -106 38 -141 16 -19 34 -35 39 -35 14 0 10 88
-5 118 -8 15 -26 38 -40 51 -22 21 -26 22 -32 7z"/>
<path d="M1330 1910 c0 -60 45 -140 78 -140 25 0 9 104 -23 146 -36 47 -55 45
-55 -6z"/>
<path d="M1577 677 l-59 -59 239 -242 238 -242 72 70 72 70 -27 17 c-15 9
-124 114 -242 233 -118 119 -219 215 -225 214 -5 -1 -36 -28 -68 -61z m289
-200 c112 -112 204 -208 204 -214 0 -14 -54 -63 -70 -63 -12 0 -372 355 -409
403 -12 16 -11 21 14 47 16 17 35 30 43 30 8 0 106 -92 218 -203z"/>
</g>
</svg>
