<?xml version="1.0" standalone="no"?>
<!DOCTYPE svg PUBLIC "-//W3C//DTD SVG 20010904//EN"
 "http://www.w3.org/TR/2001/REC-SVG-20010904/DTD/svg10.dtd">
<svg version="1.0" xmlns="http://www.w3.org/2000/svg"
 width="300.000000pt" height="300.000000pt" viewBox="0 0 300.000000 300.000000"
 preserveAspectRatio="xMidYMid meet">
<metadata>
Created by potrace 1.10, written by Peter Selinger 2001-2011
</metadata>
<g transform="translate(0.000000,300.000000) scale(0.100000,-0.100000)"
fill="#000000" stroke="none">
<path d="M1450 2304 c0 -22 31 -49 89 -79 124 -62 144 -124 67 -201 -75 -75
-142 -57 -197 52 -18 36 -45 75 -59 86 l-25 20 -3 -52 c-11 -186 253 -256 338
-90 65 127 -23 270 -165 270 -25 0 -45 -3 -45 -6z"/>
<path d="M1375 2258 c-25 -25 -45 -49 -45 -54 0 -6 13 -14 28 -20 20 -8 38
-31 65 -82 57 -108 98 -127 161 -72 72 64 56 116 -54 175 -41 22 -80 50 -86
63 -18 37 -22 37 -69 -10z m60 -38 c4 -6 33 -24 66 -40 91 -46 110 -97 48
-130 -32 -17 -54 -3 -84 53 -16 28 -39 66 -52 83 -12 17 -20 34 -16 37 10 10
31 8 38 -3z"/>
<path d="M693 2151 c-116 -56 -199 -154 -229 -271 -35 -136 21 -275 171 -426
74 -74 105 -98 175 -131 47 -23 114 -49 150 -58 261 -67 482 149 415 405 -40
155 -126 289 -248 387 -112 90 -172 116 -282 120 -83 4 -95 2 -152 -26z m126
-44 c8 -11 7 -18 -7 -31 -18 -15 -20 -15 -36 3 -17 18 -17 20 1 30 24 14 28
14 42 -2z m105 -6 c3 -4 -4 -17 -15 -26 -18 -17 -21 -17 -35 -3 -9 9 -13 21
-10 27 8 13 53 15 60 2z m-204 -26 c-13 -16 -40 -21 -40 -7 0 10 42 32 49 26
2 -2 -2 -10 -9 -19z m43 -47 c-15 -17 -17 -17 -35 -1 -17 15 -17 17 -1 35 15
17 17 17 35 1 17 -15 17 -17 1 -35z m100 0 c-15 -17 -17 -17 -35 -1 -17 15
-17 17 -1 35 15 17 17 17 35 1 17 -15 17 -17 1 -35z m97 -2 c-19 -19 -21 -19
-37 -3 -16 15 -16 18 2 37 17 19 19 19 37 3 18 -16 18 -17 -2 -37z m-284 23
c10 -17 -23 -46 -38 -31 -8 8 -8 15 2 27 15 18 26 19 36 4z m379 -18 c3 -5 1
-13 -5 -16 -14 -8 -40 13 -40 32 0 10 4 11 19 3 11 -5 22 -14 26 -19z m-342
-53 c-15 -17 -17 -17 -35 -1 -17 15 -17 17 -1 35 15 17 17 17 35 1 17 -15 17
-17 1 -35z m100 0 c-15 -17 -17 -17 -35 -1 -17 15 -17 17 -1 35 15 17 17 17
35 1 17 -15 17 -17 1 -35z m100 0 c-15 -17 -17 -17 -35 -1 -17 15 -17 17 -1
35 15 17 17 17 35 1 17 -15 17 -17 1 -35z m97 -2 c-19 -19 -21 -19 -37 -3 -16
15 -16 18 2 37 17 19 19 19 37 3 18 -16 18 -17 -2 -37z m-380 20 c0 -22 -29
-41 -42 -28 -9 9 -7 17 7 32 18 20 35 18 35 -4z m470 -1 c22 -26 -4 -43 -30
-20 -20 18 -18 35 4 35 8 0 19 -7 26 -15z m-437 -67 c-15 -17 -17 -17 -35 -1
-17 15 -17 17 -1 35 15 17 17 17 35 1 17 -15 17 -17 1 -35z m100 0 c-15 -17
-17 -17 -35 -1 -17 15 -17 17 -1 35 15 17 17 17 35 1 17 -15 17 -17 1 -35z
m100 0 c-15 -17 -17 -17 -35 -1 -17 15 -17 17 -1 35 15 17 17 17 35 1 17 -15
17 -17 1 -35z m100 0 c-15 -17 -17 -17 -35 -1 -17 15 -17 17 -1 35 15 17 17
17 35 1 17 -15 17 -17 1 -35z m101 29 c16 -25 -16 -56 -38 -37 -19 15 -20 32
-4 48 15 15 28 11 42 -11z m88 -39 c-18 -18 -57 19 -40 39 10 12 15 11 32 -6
16 -16 18 -23 8 -33z m-572 28 c0 -16 -28 -42 -36 -33 -8 7 14 47 26 47 6 0
10 -6 10 -14z m37 -31 c14 -14 14 -18 -2 -36 -17 -18 -19 -18 -37 -2 -17 15
-17 17 -2 35 21 22 21 22 41 3z m96 -37 c-15 -17 -17 -17 -35 -1 -17 15 -17
17 -1 35 15 17 17 17 35 1 17 -15 17 -17 1 -35z m100 0 c-15 -17 -17 -17 -35
-1 -17 15 -17 17 -1 35 15 17 17 17 35 1 17 -15 17 -17 1 -35z m100 0 c-15
-17 -17 -17 -35 -1 -17 15 -17 17 -1 35 15 17 17 17 35 1 17 -15 17 -17 1 -35z
m101 29 c8 -12 7 -21 -5 -32 -14 -14 -17 -14 -33 4 -15 17 -16 22 -4 35 15 18
28 16 42 -7z m100 0 c16 -25 -16 -56 -38 -37 -19 15 -20 32 -4 48 15 15 28 11
42 -11z m86 -41 c-6 -6 -17 -2 -30 9 -16 14 -17 21 -8 32 10 12 14 11 29 -9
11 -14 14 -27 9 -32z m-631 0 c9 -11 9 -19 -1 -35 -14 -23 -26 -23 -42 1 -7
12 -6 21 3 32 17 20 25 20 40 2z m98 -1 c14 -14 14 -18 -2 -36 -17 -18 -19
-18 -37 -2 -17 15 -17 17 -2 35 21 22 21 22 41 3z m96 -37 c-15 -17 -17 -17
-35 -1 -17 15 -17 17 -1 35 15 17 17 17 35 1 17 -15 17 -17 1 -35z m100 0
c-15 -17 -17 -17 -35 -1 -17 15 -17 17 -1 35 15 17 17 17 35 1 17 -15 17 -17
1 -35z m101 34 c15 -18 15 -20 -2 -35 -18 -16 -20 -16 -37 3 -14 16 -15 22 -5
35 16 19 23 19 44 -3z m100 -5 c8 -12 7 -21 -5 -32 -14 -14 -17 -14 -34 5 -15
16 -16 22 -5 35 15 18 29 16 44 -8z m96 8 c18 -21 -16 -61 -37 -44 -16 14 -17
31 -1 47 16 16 23 15 38 -3z m85 -53 c-8 -9 -45 30 -38 41 4 6 14 1 25 -13 10
-12 16 -25 13 -28z m-625 3 c10 -13 9 -19 -5 -35 -17 -19 -19 -19 -37 -3 -17
15 -17 17 -2 35 21 22 28 22 44 3z m97 0 c14 -14 14 -18 -2 -36 -17 -18 -19
-18 -37 -2 -17 15 -17 17 -2 35 21 22 21 22 41 3z m96 -37 c-15 -17 -17 -17
-35 -1 -17 15 -17 17 -1 35 15 17 17 17 35 1 17 -15 17 -17 1 -35z m101 34
c15 -18 15 -20 -2 -35 -18 -16 -20 -16 -37 3 -14 16 -15 22 -5 35 16 19 23 19
44 -3z m100 -5 c8 -12 7 -21 -5 -32 -14 -14 -17 -14 -34 5 -15 16 -16 22 -5
35 15 18 29 16 44 -8z m96 7 c11 -12 10 -18 -3 -32 -16 -15 -18 -15 -34 0 -13
14 -14 20 -3 32 7 9 16 16 20 16 4 0 13 -7 20 -16z m100 1 c10 -13 9 -19 -5
-35 -17 -19 -19 -19 -37 -3 -17 15 -17 17 -2 35 21 22 28 22 44 3z m-640 -51
c11 -13 10 -19 -8 -36 l-21 -22 -9 25 c-15 39 13 64 38 33z m100 1 c24 -29
-21 -60 -48 -33 -9 9 -8 16 5 30 20 22 27 22 43 3z m97 0 c14 -14 14 -18 -2
-36 -17 -18 -19 -18 -37 -2 -17 15 -17 17 -2 35 21 22 21 22 41 3z m97 -3 c15
-18 15 -20 -2 -35 -18 -16 -20 -16 -36 2 -15 17 -16 22 -4 35 17 20 22 20 42
-2z m100 0 c15 -18 15 -20 -2 -35 -18 -16 -20 -16 -37 3 -14 16 -15 22 -5 35
16 19 23 19 44 -3z m96 2 c11 -12 10 -18 -3 -32 -16 -15 -18 -15 -34 0 -13 14
-14 20 -3 32 7 9 16 16 20 16 4 0 13 -7 20 -16z m100 0 c11 -12 10 -18 -3 -32
-16 -15 -18 -15 -34 0 -13 14 -14 20 -3 32 7 9 16 16 20 16 4 0 13 -7 20 -16z
m100 1 c10 -13 9 -19 -5 -35 -17 -19 -19 -19 -37 -3 -17 15 -17 17 -2 35 21
22 28 22 44 3z m-640 -51 c11 -12 11 -18 -2 -30 -13 -13 -19 -14 -36 -3 -20
12 -20 15 -5 31 20 22 27 22 43 2z m100 1 c24 -29 -21 -60 -48 -33 -9 9 -8 16
5 30 20 22 27 22 43 3z m97 -1 c15 -14 14 -17 -4 -35 -19 -20 -19 -20 -37 0
-15 17 -16 22 -4 35 17 20 26 20 45 0z m96 -2 c13 -14 14 -21 5 -30 -16 -16
-33 -15 -48 3 -10 12 -10 18 0 30 16 19 23 19 43 -3z m97 2 c11 -12 10 -18 -3
-32 -16 -15 -18 -15 -34 0 -13 14 -14 20 -3 32 7 9 16 16 20 16 4 0 13 -7 20
-16z m100 0 c11 -12 10 -18 -3 -32 -16 -15 -18 -15 -34 0 -13 14 -14 20 -3 32
7 9 16 16 20 16 4 0 13 -7 20 -16z m100 0 c11 -12 10 -18 -3 -32 -16 -15 -18
-15 -34 0 -13 14 -14 20 -3 32 7 9 16 16 20 16 4 0 13 -7 20 -16z m90 -5 c9
-15 8 -24 -1 -35 -10 -13 -14 -12 -31 2 -17 16 -17 18 -2 36 21 22 21 22 34
-3z m-630 -45 c11 -12 10 -18 -3 -32 -16 -15 -18 -15 -34 0 -13 14 -14 20 -3
32 16 20 24 20 40 0z m100 1 c10 -12 10 -18 0 -30 -16 -19 -27 -19 -47 0 -12
12 -13 19 -3 30 16 19 34 19 50 0z m97 0 c12 -12 13 -19 3 -30 -16 -19 -34
-19 -50 0 -10 12 -10 18 0 30 16 19 27 19 47 0z m93 -1 c11 -12 10 -18 -3 -32
-16 -15 -18 -15 -34 0 -13 14 -14 20 -3 32 7 9 16 16 20 16 4 0 13 -7 20 -16z
m100 0 c11 -12 10 -18 -3 -32 -16 -15 -18 -15 -34 0 -13 14 -14 20 -3 32 7 9
16 16 20 16 4 0 13 -7 20 -16z m100 0 c11 -12 10 -18 -3 -32 -16 -15 -18 -15
-34 0 -13 14 -14 20 -3 32 7 9 16 16 20 16 4 0 13 -7 20 -16z m100 0 c11 -12
10 -18 -3 -32 -16 -15 -18 -15 -34 0 -13 14 -14 20 -3 32 7 9 16 16 20 16 4 0
13 -7 20 -16z m47 -81 c-15 -16 -18 -16 -37 2 -19 17 -19 19 -3 37 16 18 17
18 37 -2 19 -19 19 -21 3 -37z m-687 32 c10 -12 10 -19 2 -27 -9 -9 -16 -7
-27 8 -8 10 -15 22 -15 27 0 13 27 7 40 -8z m100 -1 c11 -12 10 -18 -3 -31
-15 -15 -18 -15 -37 2 -15 14 -17 21 -9 32 15 17 34 17 49 -3z m100 1 c10 -11
9 -18 -3 -30 -9 -8 -18 -15 -22 -15 -4 0 -13 7 -22 15 -12 12 -13 19 -3 30 7
8 18 15 25 15 7 0 18 -7 25 -15z m95 1 c12 -12 11 -16 -6 -32 -18 -16 -21 -16
-36 -1 -13 13 -14 19 -3 31 15 20 27 20 45 2z m95 -2 c11 -12 10 -18 -3 -32
-16 -15 -18 -15 -34 0 -13 14 -14 20 -3 32 7 9 16 16 20 16 4 0 13 -7 20 -16z
m100 0 c11 -12 10 -18 -3 -32 -16 -15 -18 -15 -34 0 -13 14 -14 20 -3 32 7 9
16 16 20 16 4 0 13 -7 20 -16z m100 0 c11 -12 10 -18 -3 -32 -16 -15 -18 -15
-34 0 -13 14 -14 20 -3 32 7 9 16 16 20 16 4 0 13 -7 20 -16z m-538 -76 c-18
-18 -57 19 -40 39 10 12 15 11 32 -6 16 -16 18 -23 8 -33z m94 -3 c-16 -16
-18 -16 -37 0 -18 17 -18 19 -2 37 16 18 17 18 36 -1 19 -18 19 -21 3 -36z
m95 2 c-18 -19 -21 -19 -36 -3 -16 16 -16 18 0 37 17 18 19 18 37 2 18 -16 18
-17 -1 -36z m396 -4 c-15 -16 -18 -16 -37 2 -19 17 -19 19 -3 37 16 18 17 18
37 -2 19 -19 19 -21 3 -37z m-288 34 c8 -11 6 -18 -9 -32 -19 -17 -22 -17 -37
-2 -13 13 -14 19 -3 31 15 20 34 20 49 3z m91 -3 c11 -12 10 -18 -3 -32 -16
-15 -18 -15 -34 0 -13 14 -14 20 -3 32 7 9 16 16 20 16 4 0 13 -7 20 -16z
m100 0 c11 -12 10 -18 -3 -32 -16 -15 -18 -15 -34 0 -13 14 -14 20 -3 32 7 9
16 16 20 16 4 0 13 -7 20 -16z m166 -32 c-4 -3 -11 -1 -18 6 -8 8 -8 15 3 28
13 16 14 16 17 -5 2 -13 1 -25 -2 -29z m-600 -41 c-10 -16 -31 -14 -46 4 -10
12 -10 18 0 31 12 13 15 13 33 -4 11 -11 16 -25 13 -31z m87 -3 c-15 -17 -17
-17 -35 -1 -17 15 -17 17 -1 35 15 17 17 17 35 1 17 -15 17 -17 1 -35z m97 -2
c-19 -19 -21 -19 -37 -3 -16 15 -16 18 2 37 17 19 19 19 37 3 18 -16 18 -17
-2 -37z m96 -4 c-15 -15 -17 -15 -33 1 -16 15 -16 18 2 37 l18 20 15 -21 c13
-18 13 -23 -2 -37z m201 1 c-15 -16 -18 -16 -37 2 -19 17 -19 19 -3 37 16 18
17 18 37 -2 19 -19 19 -21 3 -37z m100 0 c-15 -16 -18 -16 -37 2 -19 17 -19
19 -3 37 16 18 17 18 37 -2 19 -19 19 -21 3 -37z m-197 31 c11 -12 10 -18 -3
-32 -16 -15 -18 -15 -34 0 -13 14 -14 20 -3 32 7 9 16 16 20 16 4 0 13 -7 20
-16z m-338 -76 c-18 -18 -57 19 -40 39 10 12 15 11 32 -6 16 -16 18 -23 8 -33z
m91 0 c-15 -17 -17 -17 -35 -1 -17 15 -17 17 -1 35 15 17 17 17 35 1 17 -15
17 -17 1 -35z m97 -2 c-19 -19 -21 -19 -37 -3 -16 15 -16 18 2 37 17 19 19 19
37 3 18 -16 18 -17 -2 -37z m110 16 c0 -5 -7 -15 -16 -22 -12 -11 -18 -10 -31
3 -15 15 -15 18 1 36 16 17 20 18 32 6 8 -7 14 -18 14 -23z m88 -19 c-14 -13
-20 -14 -32 -3 -19 15 -20 32 -4 48 10 10 17 8 32 -8 19 -19 19 -21 4 -37z
m99 0 c-15 -16 -18 -16 -37 2 -19 17 -19 19 -3 37 16 18 17 18 37 -2 19 -19
19 -21 3 -37z m-427 -35 c0 -12 -12 -9 -34 7 -10 7 -15 19 -11 25 7 12 45 -15
45 -32z m81 -11 c-18 -19 -21 -19 -36 -3 -16 16 -16 18 0 37 17 18 19 18 37 2
18 -16 18 -17 -1 -36z m100 0 c-18 -19 -21 -19 -36 -3 -16 16 -16 18 0 37 17
18 19 18 37 2 18 -16 18 -17 -1 -36z m96 37 c18 -18 7 -49 -17 -49 -22 0 -36
31 -21 49 17 20 19 20 38 0z m100 -41 c-15 -16 -18 -16 -37 2 -19 17 -19 19
-3 37 16 18 17 18 37 -2 19 -19 19 -21 3 -37z m83 48 c0 -13 -70 -81 -83 -81
-5 0 10 20 34 45 47 48 49 50 49 36z m-322 -88 c-14 -14 -58 -7 -58 10 0 5 8
16 18 23 14 10 20 10 35 -4 14 -13 15 -18 5 -29z m96 24 c16 -25 -16 -56 -38
-37 -19 15 -20 32 -4 48 15 15 28 11 42 -11z m92 9 c18 -19 18 -30 -1 -46 -13
-10 -19 -9 -35 5 -19 17 -19 19 -4 37 20 22 22 22 40 4z m-48 -54 c2 -7 -7
-12 -23 -12 -24 0 -26 2 -15 15 14 17 31 16 38 -3z"/>
<path d="M2045 2161 c-192 -69 -362 -268 -420 -492 -67 -255 154 -471 415
-404 36 9 103 35 150 58 70 33 101 57 175 131 104 105 157 194 176 296 28 156
-70 322 -236 401 -50 24 -73 29 -135 29 -46 -1 -94 -8 -125 -19z m176 -51 c24
-13 24 -22 1 -36 -26 -17 -61 8 -42 31 15 18 16 18 41 5z m-85 -11 c3 -6 -1
-18 -10 -27 -14 -14 -17 -14 -36 3 -16 14 -17 20 -8 27 18 11 46 10 54 -3z
m184 -31 c0 -12 -24 -10 -38 4 -20 20 -13 28 13 16 14 -6 25 -15 25 -20z
m-243 -45 c-15 -16 -18 -16 -37 2 -19 17 -19 19 -3 37 16 18 17 18 37 -2 19
-19 19 -21 3 -37z m96 5 c-15 -17 -17 -17 -35 -1 -17 15 -17 17 -1 35 15 17
17 17 35 1 17 -15 17 -17 1 -35z m100 0 c-15 -17 -17 -17 -35 -1 -17 15 -17
17 -1 35 15 17 17 17 35 1 17 -15 17 -17 1 -35z m-297 -6 c-11 -12 -19 -13
-27 -5 -8 8 -4 15 13 27 28 20 39 3 14 -22z m384 23 c10 -12 10 -19 2 -27 -15
-15 -48 14 -38 31 10 15 21 14 36 -4z m-333 -72 c-15 -16 -18 -16 -37 2 -19
17 -19 19 -3 37 16 18 17 18 37 -2 19 -19 19 -21 3 -37z m96 5 c-15 -17 -17
-17 -35 -1 -17 15 -17 17 -1 35 15 17 17 17 35 1 17 -15 17 -17 1 -35z m100 0
c-15 -17 -17 -17 -35 -1 -17 15 -17 17 -1 35 15 17 17 17 35 1 17 -15 17 -17
1 -35z m100 0 c-15 -17 -17 -17 -35 -1 -17 15 -17 17 -1 35 15 17 17 17 35 1
17 -15 17 -17 1 -35z m-383 18 c0 -22 -29 -41 -42 -28 -8 8 -8 15 2 27 16 19
40 20 40 1z m470 -1 c10 -12 10 -19 2 -27 -13 -13 -42 6 -42 28 0 19 24 18 40
-1z m-433 -31 c18 -18 7 -49 -17 -49 -22 0 -36 31 -21 49 17 20 19 20 38 0z
m96 -36 c-15 -17 -17 -17 -35 -1 -17 15 -17 17 -1 35 15 17 17 17 35 1 17 -15
17 -17 1 -35z m100 0 c-15 -17 -17 -17 -35 -1 -17 15 -17 17 -1 35 15 17 17
17 35 1 17 -15 17 -17 1 -35z m100 0 c-15 -17 -17 -17 -35 -1 -17 15 -17 17
-1 35 15 17 17 17 35 1 17 -15 17 -17 1 -35z m100 0 c-15 -17 -17 -17 -35 -1
-17 15 -17 17 -1 35 15 17 17 17 35 1 17 -15 17 -17 1 -35z m-492 -2 c-16 -16
-23 -18 -33 -8 -18 18 19 57 39 40 12 -10 11 -15 -6 -32z m569 13 c7 -11 9
-23 6 -26 -8 -9 -36 17 -36 33 0 21 18 17 30 -7z m-516 -32 c16 -25 -16 -56
-38 -37 -19 15 -20 32 -4 48 15 15 28 11 42 -11z m93 8 c14 -14 14 -18 -2 -36
-17 -18 -19 -18 -37 -2 -17 15 -17 17 -2 35 21 22 21 22 41 3z m96 -37 c-15
-17 -17 -17 -35 -1 -17 15 -17 17 -1 35 15 17 17 17 35 1 17 -15 17 -17 1 -35z
m100 0 c-15 -17 -17 -17 -35 -1 -17 15 -17 17 -1 35 15 17 17 17 35 1 17 -15
17 -17 1 -35z m100 0 c-15 -17 -17 -17 -35 -1 -17 15 -17 17 -1 35 15 17 17
17 35 1 17 -15 17 -17 1 -35z m101 34 c15 -18 15 -20 -2 -35 -18 -16 -20 -16
-37 3 -14 16 -15 22 -5 35 16 19 23 19 44 -3z m-593 -36 c-26 -25 -38 -14 -22
20 10 22 14 24 27 13 13 -11 13 -15 -5 -33z m53 -19 c8 -12 7 -21 -5 -32 -14
-14 -17 -14 -34 5 -15 16 -16 22 -5 35 15 18 29 16 44 -8z m96 8 c18 -21 -16
-61 -37 -44 -16 14 -17 31 -1 47 16 16 23 15 38 -3z m97 0 c14 -14 14 -18 -2
-36 -17 -18 -19 -18 -37 -2 -17 15 -17 17 -2 35 21 22 21 22 41 3z m96 -37
c-15 -17 -17 -17 -35 -1 -17 15 -17 17 -1 35 15 17 17 17 35 1 17 -15 17 -17
1 -35z m100 0 c-15 -17 -17 -17 -35 -1 -17 15 -17 17 -1 35 15 17 17 17 35 1
17 -15 17 -17 1 -35z m101 34 c15 -18 15 -20 -2 -35 -18 -16 -20 -16 -37 3
-14 16 -15 22 -5 35 16 19 23 19 44 -3z m100 -5 c8 -12 7 -21 -5 -32 -14 -14
-17 -14 -34 5 -15 16 -16 22 -5 35 15 18 29 16 44 -8z m-693 -30 c-11 -12 -23
-19 -25 -16 -9 9 25 50 36 43 6 -4 2 -14 -11 -27z m53 -15 c15 -18 15 -20 -2
-35 -18 -16 -20 -16 -37 3 -14 16 -15 22 -5 35 16 19 23 19 44 -3z m96 2 c11
-12 10 -18 -3 -32 -16 -15 -18 -15 -34 0 -13 14 -14 20 -3 32 7 9 16 16 20 16
4 0 13 -7 20 -16z m100 1 c10 -13 9 -19 -5 -35 -17 -19 -19 -19 -37 -3 -17 15
-17 17 -2 35 21 22 28 22 44 3z m97 0 c14 -14 14 -18 -2 -36 -17 -18 -19 -18
-37 -2 -17 15 -17 17 -2 35 21 22 21 22 41 3z m96 -37 c-15 -17 -17 -17 -35
-1 -17 15 -17 17 -1 35 15 17 17 17 35 1 17 -15 17 -17 1 -35z m101 34 c15
-18 15 -20 -2 -35 -18 -16 -20 -16 -37 3 -14 16 -15 22 -5 35 16 19 23 19 44
-3z m95 4 c10 -11 10 -20 1 -37 l-12 -21 -21 20 c-17 17 -18 23 -7 36 16 20
24 20 39 2z m-635 -54 c15 -18 15 -20 -2 -35 -18 -16 -20 -16 -37 3 -14 16
-15 22 -5 35 16 19 23 19 44 -3z m96 2 c11 -12 10 -18 -3 -32 -16 -15 -18 -15
-34 0 -13 14 -14 20 -3 32 7 9 16 16 20 16 4 0 13 -7 20 -16z m100 0 c11 -12
10 -18 -3 -32 -16 -15 -18 -15 -34 0 -13 14 -14 20 -3 32 7 9 16 16 20 16 4 0
13 -7 20 -16z m100 1 c10 -13 9 -19 -5 -35 -17 -19 -19 -19 -37 -3 -17 15 -17
17 -2 35 21 22 28 22 44 3z m97 0 c14 -14 14 -18 -2 -36 -17 -18 -19 -18 -37
-2 -17 15 -17 17 -2 35 21 22 21 22 41 3z m97 -3 c15 -18 15 -20 -2 -35 -18
-16 -20 -16 -37 3 -14 16 -15 22 -5 35 16 19 23 19 44 -3z m100 0 c15 -18 15
-20 -2 -35 -18 -16 -20 -16 -37 3 -14 16 -15 22 -5 35 16 19 23 19 44 -3z m94
6 c6 -8 6 -22 0 -37 l-9 -25 -21 22 c-18 17 -19 23 -8 36 15 19 24 20 38 4z
m-735 -90 c-14 -16 -19 -17 -31 -4 -11 11 -12 18 -2 36 11 21 12 21 31 4 18
-16 18 -18 2 -36z m97 36 c11 -12 10 -18 -3 -32 -16 -15 -18 -15 -34 0 -13 14
-14 20 -3 32 7 9 16 16 20 16 4 0 13 -7 20 -16z m100 0 c11 -12 10 -18 -3 -32
-16 -15 -18 -15 -34 0 -13 14 -14 20 -3 32 7 9 16 16 20 16 4 0 13 -7 20 -16z
m100 0 c11 -12 10 -18 -3 -32 -16 -15 -18 -15 -34 0 -13 14 -14 20 -3 32 7 9
16 16 20 16 4 0 13 -7 20 -16z m100 1 c24 -29 -21 -60 -48 -33 -9 9 -8 16 5
30 20 22 27 22 43 3z m97 0 c12 -12 13 -19 3 -30 -16 -19 -34 -19 -50 0 -10
12 -10 18 0 30 16 19 27 19 47 0z m96 -3 c13 -14 14 -21 5 -30 -16 -16 -33
-15 -48 3 -10 12 -10 18 0 30 16 19 23 19 43 -3z m100 0 c15 -16 15 -19 -5
-31 -17 -11 -23 -10 -36 3 -13 12 -13 18 -2 30 16 20 23 20 43 -2z m-643 -48
c11 -12 10 -18 -3 -32 -16 -15 -18 -15 -34 0 -13 14 -14 20 -3 32 7 9 16 16
20 16 4 0 13 -7 20 -16z m100 0 c11 -12 10 -18 -3 -32 -16 -15 -18 -15 -34 0
-13 14 -14 20 -3 32 7 9 16 16 20 16 4 0 13 -7 20 -16z m100 0 c11 -12 10 -18
-3 -32 -16 -15 -18 -15 -34 0 -13 14 -14 20 -3 32 7 9 16 16 20 16 4 0 13 -7
20 -16z m100 0 c11 -12 10 -18 -3 -32 -16 -15 -18 -15 -34 0 -13 14 -14 20 -3
32 7 9 16 16 20 16 4 0 13 -7 20 -16z m100 1 c10 -12 10 -18 0 -30 -16 -19
-34 -19 -50 0 -9 11 -9 17 2 29 17 20 32 20 48 1z m94 0 c16 -12 17 -17 6 -30
-16 -19 -34 -19 -50 0 -10 12 -10 18 0 30 15 18 20 18 44 0z m96 -1 c11 -12
10 -18 -3 -32 -16 -15 -18 -15 -34 0 -13 14 -14 20 -3 32 7 9 16 16 20 16 4 0
13 -7 20 -16z m-640 -78 c-19 -19 -21 -19 -37 -3 -16 15 -16 18 2 37 17 19 19
19 37 3 18 -16 18 -17 -2 -37z m500 0 c-16 -20 -34 -20 -50 -1 -10 13 -9 19 5
36 19 20 19 20 39 0 16 -17 17 -23 6 -35z m190 36 c0 -4 -7 -16 -15 -26 -12
-15 -18 -17 -27 -8 -9 9 -7 16 7 32 16 18 35 19 35 2z m-590 -8 c11 -12 10
-18 -3 -32 -16 -15 -18 -15 -34 0 -13 14 -14 20 -3 32 7 9 16 16 20 16 4 0 13
-7 20 -16z m100 0 c11 -12 10 -18 -3 -32 -16 -15 -18 -15 -34 0 -13 14 -14 20
-3 32 7 9 16 16 20 16 4 0 13 -7 20 -16z m100 0 c11 -12 10 -18 -3 -32 -16
-15 -18 -15 -34 0 -13 14 -14 20 -3 32 7 9 16 16 20 16 4 0 13 -7 20 -16z
m100 0 c11 -12 10 -18 -3 -31 -15 -15 -18 -15 -37 2 -15 14 -17 21 -9 32 15
17 34 17 49 -3z m199 3 c8 -11 6 -18 -9 -32 -19 -17 -22 -17 -37 -2 -13 13
-14 19 -3 31 15 20 34 20 49 3z m-549 -81 c-19 -19 -21 -19 -37 -3 -16 15 -16
18 2 37 17 19 19 19 37 3 18 -16 18 -17 -2 -37z m396 -1 c-16 -16 -18 -16 -37
0 -18 17 -18 19 -2 37 16 18 17 18 36 -1 19 -18 19 -21 3 -36z m94 1 c-19 -19
-21 -19 -37 -3 -16 15 -16 18 2 37 17 19 19 19 37 3 18 -16 18 -17 -2 -37z
m91 10 c-16 -16 -23 -18 -33 -8 -18 18 19 57 39 40 12 -10 11 -15 -6 -32z
m-665 -5 c-13 -20 -26 -11 -26 16 0 25 1 26 16 11 9 -9 13 -21 10 -27z m184
23 c11 -12 10 -18 -3 -32 -16 -15 -18 -15 -34 0 -13 14 -14 20 -3 32 7 9 16
16 20 16 4 0 13 -7 20 -16z m100 0 c11 -12 10 -18 -3 -32 -16 -15 -18 -15 -34
0 -13 14 -14 20 -3 32 7 9 16 16 20 16 4 0 13 -7 20 -16z m100 0 c11 -12 10
-18 -3 -31 -15 -15 -18 -15 -37 2 -15 14 -17 21 -9 32 15 17 34 17 49 -3z
m-350 -78 c-19 -19 -21 -19 -37 -3 -16 15 -16 18 2 37 17 19 19 19 37 3 18
-16 18 -17 -2 -37z m100 0 c-19 -19 -21 -19 -37 -3 -16 15 -16 18 2 37 17 19
19 19 37 3 18 -16 18 -17 -2 -37z m197 -3 c-15 -16 -18 -16 -37 2 -19 17 -19
19 -3 37 16 18 17 18 37 -2 19 -19 19 -21 3 -37z m100 0 c-15 -16 -18 -16 -37
2 -19 17 -19 19 -3 37 16 18 17 18 37 -2 19 -19 19 -21 3 -37z m96 5 c-15 -17
-17 -17 -35 -1 -17 15 -17 17 -1 35 15 17 17 17 35 1 17 -15 17 -17 1 -35z
m97 8 c-7 -9 -18 -16 -26 -16 -22 0 -27 20 -8 41 16 17 19 18 32 5 13 -12 13
-18 2 -30z m-390 18 c11 -12 10 -18 -3 -32 -16 -15 -18 -15 -34 0 -13 14 -14
20 -3 32 7 9 16 16 20 16 4 0 13 -7 20 -16z m-150 -78 c-19 -19 -21 -19 -37
-3 -16 15 -16 18 2 37 17 19 19 19 37 3 18 -16 18 -17 -2 -37z m110 19 c0 -7
-7 -18 -16 -25 -12 -11 -18 -10 -31 3 -15 15 -15 18 2 37 14 15 21 17 32 9 7
-6 13 -17 13 -24z m88 -22 c-14 -13 -20 -14 -32 -3 -19 15 -20 32 -4 48 10 10
17 8 32 -8 19 -19 19 -21 4 -37z m98 2 c-16 -16 -18 -16 -37 0 -18 17 -18 19
-2 37 16 18 17 18 36 -1 19 -18 19 -21 3 -36z m97 3 c-15 -17 -17 -17 -35 -1
-17 15 -17 17 -1 35 15 17 17 17 35 1 17 -15 17 -17 1 -35z m88 8 c-16 -16
-23 -18 -33 -8 -18 18 19 57 39 40 12 -10 11 -15 -6 -32z m-431 -60 c-19 -19
-21 -19 -37 -3 -16 15 -16 18 2 37 17 19 19 19 37 3 18 -16 18 -17 -2 -37z
m104 31 c16 -25 -16 -56 -38 -37 -19 15 -20 32 -4 48 15 15 28 11 42 -11z m93
-34 c-15 -16 -18 -16 -37 2 -19 17 -19 19 -3 37 16 18 17 18 37 -2 19 -19 19
-21 3 -37z m99 2 c-16 -16 -18 -16 -37 0 -18 17 -18 19 -2 37 16 18 17 18 36
-1 19 -18 19 -21 3 -36z m78 20 c-35 -26 -47 -15 -17 17 11 13 20 15 27 8 7
-7 4 -15 -10 -25z m-320 -38 c16 -25 -16 -56 -38 -37 -19 15 -20 32 -4 48 15
15 28 11 42 -11z m100 0 c16 -25 -16 -56 -38 -37 -19 15 -20 32 -4 48 15 15
28 11 42 -11z m106 -17 c0 -14 -44 -19 -57 -8 -11 9 -10 14 3 30 16 17 18 17
36 2 10 -10 18 -20 18 -24z m-160 -25 c11 -13 8 -15 -14 -15 -25 0 -33 10 -19
23 10 11 19 8 33 -8z"/>
<path d="M1400 1528 c0 -15 -7 -45 -15 -66 -15 -37 -15 -42 11 -113 14 -41 35
-91 46 -112 30 -60 18 -73 -39 -44 -27 14 -80 36 -120 50 -67 25 -75 25 -107
12 -20 -8 -50 -15 -68 -15 -22 0 19 -18 122 -53 140 -47 278 -113 264 -126 -5
-5 296 -311 307 -311 4 0 26 19 49 42 l42 42 -173 172 c-196 194 -205 208
-274 416 -24 73 -44 121 -45 106z m266 -520 c90 -89 164 -169 164 -179 0 -44
-36 -19 -198 143 -135 135 -169 174 -161 185 6 7 16 13 21 13 6 0 84 -73 174
-162z"/>
<path d="M1557 1430 c-34 -106 -37 -124 -27 -155 6 -19 15 -37 19 -40 5 -2 22
30 39 73 42 109 44 119 32 142 -6 12 -14 39 -18 61 -7 39 -8 37 -45 -81z"/>
<path d="M1710 1241 c-41 -16 -88 -34 -104 -40 l-30 -12 25 -25 25 -24 149 50
c101 33 139 49 117 50 -18 0 -49 7 -69 15 -19 8 -36 15 -37 15 0 -1 -35 -14
-76 -29z"/>
<path d="M1242 967 l-133 -133 42 -42 c23 -23 44 -42 48 -42 3 0 68 62 144
138 l138 138 -28 26 c-24 22 -64 48 -75 48 -2 0 -63 -60 -136 -133z m165 67
c4 -11 -27 -48 -102 -124 -103 -103 -135 -122 -135 -81 0 19 200 221 219 221
6 0 14 -7 18 -16z"/>
<path d="M1060 805 l-24 -26 52 -52 52 -52 26 26 26 26 -52 52 c-28 28 -52 51
-54 51 -1 0 -13 -11 -26 -25z"/>
<path d="M1857 778 l-49 -51 26 -26 26 -26 52 52 52 52 -24 26 c-13 14 -26 25
-29 24 -3 -1 -28 -24 -54 -51z"/>
</g>
</svg>
